<?xml version="1.0" encoding="UTF-8"?>
<svg id="Layer_2" data-name="Layer 2" xmlns="http://www.w3.org/2000/svg" viewBox="0 0 854.2 267.97">
  <defs>
    <style>
      .cls-1 {
        fill: #e3ff00;
      }
      .cls-2{
        fill: #fff;
      }
      .cls-1, .cls-2 {
        stroke-width: 0px;
      }
    </style>
  </defs>
  <g id="Layer_1-2" data-name="Layer 1">
    <g>
      <path class="cls-2" d="m169.49,52.22h31.88l5.41,20.94h2.29c8.32-11.76,22.95-20.66,41.31-20.94h4.88v40.74h-5.16c-19.8,0-39.02,10.62-39.02,39.59v69.43h-41.6V52.22Z"/>
      <path class="cls-2" d="m257.45,129.1c0-43.9,36.44-76.89,80.62-76.89s80.33,32.99,80.33,76.89-35.57,77.46-80.62,77.46-80.33-33.28-80.33-77.46Zm118.78,0c0-21.8-16.64-38.16-38.16-38.16s-38.44,16.35-38.44,38.16,16.93,38.44,38.16,38.44,38.44-16.35,38.44-38.44Z"/>
      <path class="cls-2" d="m397.32,129.1c0-43.9,36.44-76.89,80.62-76.89s80.33,32.99,80.33,76.89-35.58,77.46-80.62,77.46-80.33-33.28-80.33-77.46Zm118.78,0c0-21.8-16.64-38.16-38.16-38.16s-38.44,16.35-38.44,38.16,16.93,38.44,38.16,38.44,38.44-16.35,38.44-38.44Z"/>
      <path class="cls-2" d="m537.18,129.1c0-43.9,36.44-76.89,80.62-76.89s80.33,32.99,80.33,76.89-35.58,77.46-80.62,77.46-80.33-33.28-80.33-77.46Zm118.78,0c0-21.8-16.64-38.16-38.16-38.16s-38.44,16.35-38.44,38.16,16.93,38.44,38.16,38.44,38.44-16.35,38.44-38.44Z"/>
      <path class="cls-2" d="m707.31,0h41.31v70.29h2.29c8.32-9.18,19.8-18.07,43.03-18.07,39.59,0,60.25,24.39,60.25,60.82v88.94h-43.03v-79.76c0-20.66-11.19-31.56-29.55-31.56-21.23,0-31.27,16.64-31.27,35.86v75.45h-43.03V0Z"/>
      <g>
        <path class="cls-2" d="m153.26,123.08c0-15.49-7.17-30.98-18.65-43.61h25.7l-7.05-27.25h-76.89C33.05,52.22.06,80.05.06,123.08s30.12,70.87,76.6,70.87h1.72c20.37,0,31.56,3.15,31.56,17.21,0,11.76-10.9,19.51-33.28,19.51-11.48,0-24.24-1.65-35.93-4.34s-22.31-6.42-29.48-10.58l11.23,43.46s.01,0,.02.01c16.07,5.58,34.28,8.75,54.16,8.75,53.36,0,76.03-23.53,76.03-53.65,0-17.51-9.76-29.27-26.11-36.15,16.07-12.05,26.68-30.99,26.68-55.09Zm-76.6,35.58c-20.94,0-37.3-13.49-37.3-35.58s18.08-35.29,37.3-35.29c17.5,0,37.01,12.63,37.01,35.29,0,18.94-16.07,35.58-37.01,35.58Z"/>
        <path class="cls-1" d="m11.25,215.75L0,259.22s0-.01.02-.01c3.87-1.34,7.61-2.83,11.23-4.44,3.62,1.61,7.36,3.1,11.23,4.44t.02.01l-11.25-43.47Z"/>
      </g>
    </g>
  </g>
</svg>