<svg width="150" height="90" viewBox="0 0 150 90" fill="none" xmlns="http://www.w3.org/2000/svg">
<g clip-path="url(#clip0_32331_128963)">
<path d="M48.5269 5.00781H101.507C109.54 5.00781 116.034 11.5022 116.034 19.5347V70.4645C116.034 78.497 109.54 84.9914 101.507 84.9914H48.5269C40.4944 84.9914 34 78.497 34 70.4645V19.5347C34 11.5022 40.4944 5.00781 48.5269 5.00781Z" fill="white"/>
<path d="M77.1364 26.0279L66.8821 42.9475L77.82 60.8926C77.8884 61.0293 77.9225 61.166 77.8884 61.3027C77.8542 61.4394 77.7175 61.3369 77.5124 61.3711H69.6849C69.1381 61.3711 68.7621 61.3369 68.5228 60.9951C67.805 59.5595 67.053 58.1581 66.3352 56.7225C65.6174 55.321 64.8313 53.8854 64.0109 52.4157C63.1906 50.9459 62.3702 49.4761 61.5499 47.9721H61.4815C60.7637 49.4419 59.9776 50.9117 59.1914 52.3815C58.4052 53.8513 57.6191 55.321 56.8671 56.7566C56.0809 58.1922 55.2948 59.662 54.5086 61.0635C54.3719 61.4053 54.0984 61.4395 53.7225 61.4395H46.2027C46.0659 61.4395 45.9634 61.5078 45.9634 61.3369C45.9292 61.2002 45.9634 61.0635 46.0318 60.9609L56.662 43.5286L46.3052 25.9937C46.2027 25.857 46.1685 25.7203 46.2368 25.6519C46.3052 25.5494 46.4419 25.5152 46.5786 25.5152H54.3377C54.5086 25.5152 54.6795 25.5494 54.8162 25.5836C54.953 25.6519 55.0555 25.7545 55.1581 25.8912C55.8075 27.361 56.5595 28.8308 57.3456 30.3005C58.166 31.7703 58.9521 33.2059 59.8067 34.6415C60.627 36.0771 61.379 37.5127 62.0968 38.9825H62.1651C62.8829 37.4786 63.6349 36.0088 64.3869 34.5732C65.1389 33.1376 65.925 31.702 66.7112 30.2664C67.4974 28.8308 68.2493 27.361 69.0013 25.9595C69.0355 25.8228 69.1039 25.6861 69.2064 25.6177C69.3431 25.5494 69.4799 25.5152 69.6508 25.5494H76.8629C77.0338 25.5152 77.2047 25.6177 77.2389 25.7886C77.2731 25.8228 77.2047 25.9595 77.1364 26.0279ZM92.928 62.0889C90.3986 62.1231 87.8692 61.6104 85.5791 60.5507C83.4257 59.5595 81.6483 57.9188 80.4178 55.9021C79.1531 53.8171 78.5378 51.2193 78.5378 48.1089C78.5036 45.5795 79.1531 43.0842 80.4178 40.8967C81.7166 38.6749 83.5966 36.8291 85.8525 35.5986C88.2452 34.2655 91.1164 33.6161 94.5003 33.6161C94.6712 33.6161 94.9105 33.6161 95.2181 33.6503C95.5257 33.6845 95.8675 33.6845 96.2777 33.7186V22.9174C96.2777 22.6782 96.3802 22.5414 96.6195 22.5414H103.558C103.729 22.5073 103.866 22.644 103.9 22.7807V55.3894C103.9 56.0047 103.934 56.6883 103.968 57.4403C104.037 58.1581 104.071 58.8417 104.105 59.4228C104.105 59.662 104.003 59.8671 103.763 59.9697C101.986 60.7216 100.106 61.2685 98.1918 61.6104C96.4486 61.918 94.7054 62.0889 92.928 62.0889ZM96.2777 55.2527V40.213C95.9701 40.1447 95.6624 40.0763 95.3548 40.0421C94.9788 40.0079 94.6028 39.9738 94.2268 39.9738C92.8938 39.9738 91.5607 40.2472 90.3644 40.8625C89.2022 41.4436 88.211 42.2981 87.459 43.3919C86.707 44.4857 86.3311 45.9554 86.3311 47.7329C86.2969 48.9292 86.502 50.1255 86.9121 51.2535C87.2539 52.1764 87.7666 52.9967 88.4503 53.6804C89.0997 54.2956 89.8859 54.7741 90.7746 55.0476C91.6975 55.3552 92.6545 55.492 93.6116 55.492C94.1243 55.492 94.6028 55.4578 95.0472 55.4236C95.4915 55.4578 95.8675 55.3894 96.2777 55.2527Z" fill="#02021E"/>
</g>
<defs>
<clipPath id="clip0_32331_128963">
<rect width="82.0342" height="80" fill="white" transform="translate(34 5)"/>
</clipPath>
</defs>
</svg>
