<svg width="270" height="270" viewBox="0 0 270 270" fill="none" xmlns="http://www.w3.org/2000/svg">
<path d="M128.53 211.968C130.062 213.5 132.361 214.138 134.404 214.138C136.575 214.138 138.618 213.5 140.279 211.968L216.775 135.379C224.182 127.975 229.034 117.891 229.034 106.658C229.034 93.8932 223.16 82.2772 213.582 74.746C196.98 60.8323 172.333 64.1512 156.88 78.9584L134.404 101.807L110.395 77.4266C102.988 70.023 92.7718 65.1724 80.8951 65.1724C67.9968 65.1724 56.8864 71.5547 49.3517 80.6178C35.4317 97.0844 38.7521 122.104 53.5661 137.038L128.53 211.968Z" stroke="#02021E" stroke-width="2.5" stroke-miterlimit="3.004" stroke-linecap="round" stroke-linejoin="round"/>
<path d="M134.069 138.499L121.304 128.913C118.905 126.63 115.646 125.224 112.06 125.224C109.293 125.224 106.713 126.061 104.585 127.491C101.031 129.879 98.6895 133.917 98.6895 138.491C98.6895 145.82 104.675 151.759 112.06 151.759C115.646 151.759 118.897 150.361 121.296 148.078L134.069 138.483V138.499Z" stroke="#02021E" stroke-width="2.5" stroke-linecap="round" stroke-linejoin="round"/>
<path d="M134.068 138.499L147.001 128.913C149.432 126.63 152.733 125.224 156.367 125.224C159.171 125.224 161.784 126.061 163.94 127.491C167.549 129.879 169.913 133.917 169.913 138.491C169.913 145.82 163.849 151.759 156.367 151.759C152.733 151.759 149.44 150.361 147.009 148.078L134.068 138.483V138.499Z" stroke="#02021E" stroke-width="2.5" stroke-linecap="round" stroke-linejoin="round"/>
</svg>
