<svg width="150" height="90" viewBox="0 0 150 90" fill="none" xmlns="http://www.w3.org/2000/svg">
<g clip-path="url(#clip0_32256_76461)">
<path fill-rule="evenodd" clip-rule="evenodd" d="M115.091 45.0001C115.091 66.8848 97.1609 84.6282 75.0465 84.6282C52.93 84.6282 35 66.8848 35 45.0001C35 23.1134 52.93 5.37207 75.0465 5.37207C97.1609 5.37207 115.091 23.1134 115.091 45.0001ZM100.432 34.4677C100.176 34.3192 99.8835 34.2409 99.5861 34.2409C99.2886 34.2409 98.9966 34.3192 98.7399 34.4677L77.1437 46.9198C76.8856 47.0696 76.6717 47.2836 76.5232 47.5404C76.3747 47.7972 76.2969 48.0879 76.2975 48.3836V54.9486C76.2975 55.5525 76.6174 56.1085 77.1437 56.4104C77.4001 56.5588 77.6918 56.6369 77.9889 56.6369C78.286 56.6369 78.5777 56.5588 78.8341 56.4104L85.9397 52.311V67.5327C85.9376 67.7533 85.9796 67.9721 86.0635 68.1765C86.1473 68.3809 86.2713 68.5669 86.4282 68.7238C86.5851 68.8807 86.7719 69.0053 86.9779 69.0906C87.1838 69.1758 87.4048 69.22 87.628 69.2205C87.9253 69.2199 88.2172 69.142 88.4742 68.9945L92.7194 66.5469C92.9772 66.3973 93.191 66.1837 93.3394 65.9272C93.4878 65.6708 93.5658 65.3805 93.5656 65.0851V47.9137L100.432 43.9523C100.69 43.8026 100.903 43.5889 101.051 43.3324C101.2 43.076 101.277 42.7857 101.276 42.4905V35.9315C101.276 35.3276 100.953 34.7697 100.432 34.4677ZM77.1437 30.4883L83.9497 34.4157C83.9672 34.4262 83.9818 34.4408 83.9921 34.4583C84.0023 34.4757 84.008 34.4955 84.0084 34.5157V39.389C84.0084 39.9029 84.5651 40.2268 85.0145 39.9689C87.6584 38.4451 94.7761 34.3497 97.3998 32.842C97.5002 32.7834 97.5833 32.6998 97.6408 32.5996C97.6983 32.4993 97.7281 32.3859 97.7273 32.2707C97.7264 32.1555 97.695 32.0426 97.6361 31.9431C97.5772 31.8437 97.4929 31.7613 97.3917 31.7041L78.8341 21.0057C78.5777 20.8576 78.286 20.7795 77.9889 20.7795C77.6919 20.7795 77.4002 20.8576 77.1437 21.0057C76.8858 21.1547 76.6719 21.3679 76.5234 21.6241C76.3749 21.8802 76.297 22.1703 76.2975 22.4655V29.0285C76.2975 29.6304 76.6174 30.1883 77.1437 30.4883ZM73.3136 21.0037C73.0572 20.8556 72.7655 20.7775 72.4684 20.7775C72.1714 20.7775 71.8797 20.8556 71.6232 21.0037L53.0576 31.7121C52.9571 31.7687 52.8735 31.8504 52.8151 31.949C52.7567 32.0475 52.7255 32.1595 52.7247 32.2737C52.7238 32.3879 52.7534 32.5004 52.8104 32.5997C52.8674 32.6991 52.9499 32.782 53.0495 32.84C55.669 34.3437 62.8333 38.4671 65.465 39.9809C65.5655 40.0386 65.6796 40.069 65.7958 40.0689C65.912 40.0688 66.0261 40.0381 66.1264 39.9802C66.2267 39.9222 66.3096 39.8389 66.3666 39.7389C66.4236 39.6389 66.4527 39.5257 66.4509 39.411V34.4517L72.9836 30.6843C73.7124 30.2623 74.1618 29.4885 74.1618 28.6546V22.4655C74.1618 21.8636 73.8379 21.3057 73.3156 21.0057L73.3136 21.0037ZM72.9492 46.9198L51.349 34.4717C51.0929 34.3235 50.8016 34.2454 50.5048 34.2454C50.2081 34.2454 49.9167 34.3235 49.6606 34.4717C49.4027 34.6207 49.1888 34.8339 49.0403 35.09C48.8918 35.3462 48.814 35.6363 48.8145 35.9315V42.4905C48.8145 43.0944 49.1384 43.6503 49.6606 43.9523L56.5253 47.9117V65.0851C56.5253 65.685 56.8472 66.2449 57.3695 66.5449L61.6187 68.9965C61.8768 69.1435 62.1697 69.2205 62.4676 69.2197C62.7655 69.2189 63.058 69.1403 63.3152 68.9919C63.5725 68.8435 63.7856 68.6306 63.9327 68.3747C64.0799 68.1188 64.1559 67.829 64.1532 67.5348V52.313L71.2588 56.4124C71.2649 56.4124 71.269 56.4164 71.273 56.4184C71.5284 56.5626 71.8177 56.638 72.1119 56.6369C72.4061 56.6359 72.6949 56.5585 72.9492 56.4124C73.2072 56.263 73.421 56.0494 73.5695 55.7929C73.718 55.5365 73.7958 55.2461 73.7954 54.9506V48.3816C73.7954 47.7817 73.4715 47.2218 72.9492 46.9218V46.9198Z" fill="white"/>
</g>
<defs>
<clipPath id="clip0_32256_76461">
<rect width="80" height="80" fill="white" transform="translate(35 5)"/>
</clipPath>
</defs>
</svg>
