<svg width="150" height="90" viewBox="0 0 150 90" fill="none" xmlns="http://www.w3.org/2000/svg">
<g clip-path="url(#clip0_32256_76454)">
<path d="M61.6901 82.5C68.7612 82.5 74.5 76.9 74.5 70V57.5H61.6901C54.619 57.5 48.8802 63.1 48.8802 70C48.8802 76.9 54.619 82.5 61.6901 82.5Z" fill="white"/>
<path d="M48.8802 45C48.8802 38.1 54.619 32.5 61.6901 32.5H74.5V57.5H61.6901C54.619 57.5 48.8802 51.9 48.8802 45Z" fill="white"/>
<path d="M48.8804 20C48.8804 13.1 54.6192 7.5 61.6903 7.5H74.5002V32.5H61.6903C54.6192 32.5 48.8804 26.9 48.8804 20Z" fill="white"/>
<path d="M74.4999 7.5H87.3099C94.3809 7.5 100.12 13.1 100.12 20C100.12 26.9 94.3809 32.5 87.3099 32.5H74.4999V7.5Z" fill="white"/>
<path d="M100.12 45C100.12 51.9 94.3809 57.5 87.3099 57.5C80.2388 57.5 74.4999 51.9 74.4999 45C74.4999 38.1 80.2388 32.5 87.3099 32.5C94.3809 32.5 100.12 38.1 100.12 45Z" fill="white"/>
</g>
<defs>
<clipPath id="clip0_32256_76454">
<rect width="51.2499" height="75" fill="white" transform="translate(48.8749 7.5)"/>
</clipPath>
</defs>
</svg>
