<svg width="150" height="90" viewBox="0 0 150 90" fill="none" xmlns="http://www.w3.org/2000/svg">
<g clip-path="url(#clip0_32256_75030)">
<path d="M106.218 44.7774H86.3294V50.459H99.9651C97.9766 58.9827 91.7255 66.086 83.4872 68.9267L50.8142 36.2537C54.2232 26.3097 63.8832 19.2064 74.9649 19.2064C83.4872 19.2064 91.1587 23.4689 95.9894 30.0027L100.251 26.3097C94.569 18.6382 85.4758 13.5234 74.9649 13.5234C60.1902 13.5234 47.6894 24.037 44.5645 37.9582L82.0669 75.4619C95.7053 72.053 106.218 59.5508 106.218 44.7774ZM43.7109 45.0615C43.7109 53.0157 46.8372 60.6871 52.8041 66.6541C58.7698 72.6211 66.7253 75.746 74.3968 75.746L43.7109 45.0615Z" fill="#02021E"/>
<path d="M74.9638 5C53.0885 5 35.1875 22.8996 35.1875 44.7763C35.1875 66.653 53.0871 84.5526 74.9638 84.5526C96.8405 84.5526 114.74 66.6544 114.74 44.7763C114.74 22.8983 96.8419 5 74.9638 5ZM52.803 66.9371C46.836 60.9701 43.7098 53.0159 43.7098 45.3445L74.6797 76.0289C66.7242 75.7449 58.7687 72.9041 52.803 66.9371ZM81.7817 75.1767L44.5648 37.9571C47.691 24.0359 60.1918 13.5237 74.9652 13.5237C85.4774 13.5237 94.5692 18.6371 100.252 26.3085L95.9896 30.0029C91.1603 23.4678 83.4889 19.2052 74.9652 19.2052C63.8848 19.2052 54.5089 26.3085 50.8158 36.2526L83.4889 68.927C91.7285 66.0862 97.9782 58.9829 99.9681 50.4592H86.3283V44.7777H106.216C106.216 59.5511 95.7028 72.0518 81.7817 75.1767Z" fill="white"/>
</g>
<defs>
<clipPath id="clip0_32256_75030">
<rect width="80" height="80" fill="white" transform="translate(35 5)"/>
</clipPath>
</defs>
</svg>
