<svg width="150" height="90" viewBox="0 0 150 90" fill="none" xmlns="http://www.w3.org/2000/svg">
<g clip-path="url(#clip0_32256_76459)">
<path d="M111.132 14.9938V74.9905C111.145 77.627 110.111 80.1609 108.256 82.035C106.402 83.909 103.879 84.9697 101.242 84.9838C100.832 84.9869 100.422 84.9646 100.015 84.9171C97.5545 84.552 95.312 83.3001 93.7097 81.397C92.1074 79.4939 91.2559 77.0709 91.3153 74.5838V15.4005C91.2564 12.9109 92.1103 10.4858 93.7159 8.58235C95.3216 6.67889 97.5681 5.42858 100.032 5.06713C101.43 4.90387 102.846 5.03921 104.188 5.46421C105.53 5.88921 106.766 6.59418 107.815 7.53251C108.864 8.47084 109.702 9.62115 110.273 10.9074C110.844 12.1936 111.139 13.5864 111.132 14.9938ZM48.7753 65.1838C47.4589 65.1596 46.1508 65.3981 44.9275 65.8852C43.7042 66.3723 42.5903 67.0983 41.6507 68.0207C40.7112 68.9432 39.9649 70.0437 39.4554 71.2578C38.946 72.4719 38.6836 73.7754 38.6836 75.0921C38.6836 76.4088 38.946 77.7123 39.4554 78.9265C39.9649 80.1406 40.7112 81.2411 41.6507 82.1635C42.5903 83.086 43.7042 83.812 44.9275 84.2991C46.1508 84.7862 47.4589 85.0246 48.7753 85.0005C51.3717 84.9528 53.8457 83.888 55.665 82.035C57.4843 80.182 58.5036 77.6889 58.5036 75.0921C58.5036 72.4953 57.4843 70.0022 55.665 68.1493C53.8457 66.2963 51.3717 65.2314 48.7753 65.1838ZM75.0153 35.1505H74.8487C72.2032 35.2952 69.7179 36.4636 67.9187 38.4084C66.1195 40.3532 65.1476 42.9218 65.2087 45.5705V72.1871C65.2087 79.4105 68.3887 83.7938 73.042 84.7305C74.4859 85.0234 75.9769 84.9912 77.4069 84.6362C78.8368 84.2812 80.1698 83.6124 81.3092 82.6783C82.4485 81.7442 83.3656 80.5681 83.994 79.2355C84.6223 77.9029 84.9462 76.4471 84.942 74.9738V45.1105C84.9442 43.8047 84.6892 42.5113 84.1915 41.304C83.6938 40.0968 82.9632 38.9995 82.0415 38.0746C81.1197 37.1497 80.0248 36.4154 78.8192 35.9137C77.6137 35.412 76.3211 35.1527 75.0153 35.1505Z" fill="white"/>
</g>
<defs>
<clipPath id="clip0_32256_76459">
<rect width="80" height="80" fill="white" transform="translate(35 5)"/>
</clipPath>
</defs>
</svg>
