<svg width="150" height="90" viewBox="0 0 150 90" fill="none" xmlns="http://www.w3.org/2000/svg">
<g clip-path="url(#clip0_32256_76457)">
<path d="M19.2915 38.1229C21.559 37.025 24.0693 36.5052 26.5914 36.6045C31.4699 36.768 34.1518 39.215 34.2584 44.0038C34.3768 49.0203 34.3413 53.996 34.3235 59.0067C34.3235 61.0448 33.7789 61.5179 31.7363 61.5179H28.9063C27.1006 61.5179 26.5381 60.9747 26.5026 59.1819V45.7499C26.5026 43.6709 25.508 42.8182 23.3766 42.9C23.0036 42.9058 22.6366 42.9409 22.2695 43.0051C19.475 43.5658 19.3152 43.7643 19.3152 46.5733V58.5453C19.3152 61.1032 18.8712 61.5354 16.3135 61.5354H13.4776C12.1455 61.5354 11.5594 60.9163 11.4706 59.5615V27.9321C11.4706 25.6195 11.9679 25.1348 14.2769 25.1348H16.7753C18.7113 25.1348 19.3093 25.672 19.3448 27.5992C19.3981 30.49 19.3448 33.3808 19.3448 36.2658C19.2915 36.7972 19.2915 37.3695 19.2915 38.1229ZM61.0129 49.8437C60.8412 51.1753 60.7465 52.8805 60.3854 54.5449C59.8229 58.2942 56.8686 61.2609 53.0795 61.8799C50.4864 62.4289 47.8044 62.3939 45.229 61.7807C41.9668 61.1616 39.3618 58.7263 38.5685 55.5436C37.3903 51.5315 37.3903 47.2683 38.5685 43.2504C39.8177 39.0339 43.0858 36.7739 47.8755 36.6103C49.6042 36.5169 51.333 36.6279 53.0381 36.9257C57.5554 37.8192 60.1189 40.8385 60.6992 45.7733C60.8412 47.023 60.8827 48.2319 61.0129 49.8437ZM53.121 49.943C53.0322 48.5706 52.9848 47.6304 52.896 46.7077C52.8427 46.2229 52.7421 45.7441 52.5941 45.2769C52.3099 43.7234 50.8712 42.6314 49.2786 42.754C47.7215 42.6372 46.3243 43.7001 46.046 45.2185C45.3356 47.9925 45.3356 50.8949 46.046 53.6631C46.3361 55.2048 47.7926 56.2619 49.3733 56.0867C50.8712 56.186 52.2092 55.1756 52.4993 53.7215C52.7776 52.4717 52.9848 51.2103 53.1269 49.9372V49.943H53.121ZM110.999 46.1061C111.343 43.5307 110.762 42.7365 108.246 42.8533C106.192 43.0226 104.155 43.3205 102.142 43.7468C100.437 44.0505 99.188 43.6242 98.9512 42.316C98.5664 40.161 98.7144 38.3098 100.467 37.79C104.522 36.476 108.868 36.2599 113.036 37.171C116.825 38.0645 118.66 40.5348 118.66 44.5702V58.849C118.66 59.9294 118.66 61.039 117.358 61.4595C115.913 61.9792 114.285 61.5412 113.314 60.3615L112.912 59.7892C110.697 61.5354 107.903 62.4172 105.067 62.2537C98.9097 62.0318 95.3752 56.2444 98.0513 50.7373C99.3005 48.1151 101.799 47.2917 104.38 46.8829C106.606 46.5558 108.815 46.3514 110.999 46.1061ZM111.118 50.3109C109.626 50.5329 108.311 50.6555 107.039 50.93C105.706 51.0993 104.706 52.2031 104.676 53.5229C104.398 54.8486 105.108 56.1918 106.375 56.7174C107.625 57.1963 110.283 56.7174 110.893 55.8764C111.011 55.7129 111.076 55.5202 111.082 55.3216C111.118 53.6981 111.118 52.0863 111.118 50.2934V50.3109ZM66.365 37.4688V34.2802C66.2525 33.3049 66.8919 32.3939 67.857 32.1603C69.1299 31.7398 70.4265 31.3835 71.7408 31.0857C72.6881 30.7762 73.7123 31.2784 74.0261 32.2128C74.109 32.4639 74.1386 32.7267 74.1031 32.9895C74.1445 34.3619 74.1031 35.7285 74.1031 37.2527H77.8093C79.615 37.2936 80.2366 37.8718 80.3077 39.7172C80.4083 43.4665 80.2011 43.6767 76.4475 43.6767H74.2688C74.2096 44.0096 74.1682 44.3483 74.1504 44.687V52.5944C74.1504 55.0588 74.9023 55.8122 77.3297 55.9874C79.4611 56.1392 80.0413 56.6064 80.0413 58.3176C80.1182 61.0507 79.5558 61.9734 77.3297 62.1019C75.5654 62.2303 73.7893 62.1427 72.0487 61.8391C68.4313 61.1149 66.4834 58.8023 66.3591 55.0296C66.2525 51.7359 66.3177 48.4421 66.3058 45.1659V43.6884H64.1212C63.091 43.7702 62.1911 43.0168 62.1023 42.0006V41.8313C61.8004 39.3084 62.2562 38.6368 64.6895 37.9594L66.365 37.4688ZM93.5458 52.7988C93.5458 57.0678 93.6287 61.3427 93.5458 65.6117C93.5221 70.5406 89.4607 74.5177 84.4638 74.4943C83.9902 74.4943 83.5166 74.4534 83.0429 74.3775C81.3023 74.1614 80.6807 73.484 80.657 71.7028V70.1202C80.734 68.631 81.2017 68.1112 82.6995 67.8367C85.0144 67.4104 85.7663 66.5519 85.7723 64.1692V39.8749C85.7723 37.8134 86.3051 37.2644 88.395 37.2002H91.2368C92.9183 37.2761 93.5517 37.8776 93.5636 39.5478V52.717L93.5458 52.7988ZM128.453 38.9463C130.501 37.498 132.94 36.6863 135.457 36.6103C137.955 36.6103 138.529 37.1301 138.523 39.5712V40.6691C138.523 42.2459 137.86 42.8066 136.297 42.9701C134.829 43.1453 133.367 43.4022 131.922 43.7293C130.951 43.9337 130.584 44.5118 130.602 45.5805C130.679 50.0365 130.602 54.4573 130.602 58.8899C130.602 61.0682 130.122 61.5237 127.89 61.5646H124.67C123.746 61.6405 122.935 60.9572 122.858 60.0462C122.846 59.9352 122.852 59.8243 122.864 59.7133V39.2091C122.793 38.2981 123.486 37.498 124.409 37.4279H124.415H124.492C126.055 37.1651 127.695 36.9257 128.453 38.9463Z" fill="white"/>
<path d="M92.7048 32.8668C94.1198 27.8619 93.6106 25.339 91.13 24.8543C91.5089 26.5537 91.9351 28.2999 90.1235 29.4796C89.1762 30.0986 88.4243 29.8592 86.7429 28.5861C85.9673 30.157 86.2278 31.7221 86.589 33.3982C84.1794 32.9836 82.2789 31.9966 81.3968 29.7015C80.485 27.6108 80.9883 25.1872 82.646 23.6104C83.2262 23.0264 83.8538 22.495 84.5228 22.0161C87.2343 20.0071 87.7612 18.0566 86.3285 15.0373C86.2634 14.8621 86.2101 14.6869 86.1746 14.5059C89.1881 14.9555 92.0417 16.1527 94.4691 17.9748C99.756 22.238 99.1166 29.9059 93.2791 32.7208C93.0778 32.7325 92.8883 32.7792 92.7048 32.8668Z" fill="white"/>
</g>
<defs>
<clipPath id="clip0_32256_76457">
<rect width="127.059" height="60" fill="white" transform="translate(11.4706 14.5)"/>
</clipPath>
</defs>
</svg>
