<svg width="270" height="270" viewBox="0 0 270 270" fill="none" xmlns="http://www.w3.org/2000/svg">
<g clip-path="url(#clip0_33115_103746)">
<path d="M165.725 66.4744V98.7973C165.725 104.309 161.256 108.777 155.744 108.777H114.71C108.948 108.777 104.276 113.448 104.276 119.21V152.641C104.276 158.027 99.9145 162.389 94.5276 162.389H53.0774C47.4165 162.389 42.8281 166.976 42.8281 172.637V205.847C42.8281 211.454 47.3748 216 52.9821 216H216.971C222.602 216 227.173 211.436 227.173 205.8V66.4505C227.173 60.8618 222.638 56.3276 217.049 56.3276H175.873C170.265 56.3276 165.725 60.8677 165.725 66.4744Z" stroke="#02021E" stroke-width="2.5" stroke-linecap="round" stroke-linejoin="round"/>
</g>
<defs>
<clipPath id="clip0_33115_103746">
<rect width="270" height="270" fill="white"/>
</clipPath>
</defs>
</svg>
