<svg width="150" height="90" viewBox="0 0 150 90" fill="none" xmlns="http://www.w3.org/2000/svg">
<g clip-path="url(#clip0_32256_75049)">
<path d="M82.5735 11.4738C79.0918 7.24119 76.0936 2.94243 75.4811 2.0496C75.4166 1.98347 75.3198 1.98347 75.2554 2.0496C74.6428 2.94243 71.6447 7.24119 68.1629 11.4738C38.2779 50.5264 72.8698 76.8814 72.8698 76.8814L73.1599 77.0798C73.4178 81.1469 74.0625 87 74.0625 87H75.3521H76.6416C76.6416 87 77.2864 81.18 77.5443 77.0798L77.8345 76.8483C77.8667 76.8814 112.459 50.5264 82.5735 11.4738ZM75.3521 76.286C75.3521 76.286 73.8047 74.9303 73.3855 74.2361V74.1696L75.2554 31.645C75.2554 31.5127 75.4488 31.5127 75.4488 31.645L77.3186 74.1696V74.2361C76.8995 74.9303 75.3521 76.286 75.3521 76.286Z" fill="white"/>
</g>
<defs>
<clipPath id="clip0_32256_75049">
<rect width="38.7356" height="85" fill="white" transform="translate(56 2)"/>
</clipPath>
</defs>
</svg>
