<svg width="150" height="90" viewBox="0 0 150 90" fill="none" xmlns="http://www.w3.org/2000/svg">
<g clip-path="url(#clip0_32256_75050)">
<path d="M95.1565 63.9374C95.6795 59.5351 95.5228 58.8896 98.7676 59.6027L99.5914 59.6758C102.086 59.7905 105.35 59.2703 107.268 58.3701C111.395 56.4347 113.843 53.2032 109.773 54.0523C100.489 55.9877 99.8505 52.8109 99.8505 52.8109C109.654 38.1119 113.752 19.4528 110.215 14.8855C100.567 2.42737 83.8657 8.31852 83.5862 8.47147L83.4972 8.48807C81.6628 8.10345 79.6099 7.87365 77.3037 7.83597C73.1023 7.76621 69.9144 8.94899 67.4961 10.8025C67.4961 10.8025 37.7026 -1.60129 39.0887 26.4016C39.3834 32.3586 47.5384 71.4773 57.2647 59.6616C60.8197 55.341 64.2552 51.6879 64.2552 51.6879C65.9611 52.8331 68.0035 53.4174 70.1456 53.2075L70.3112 53.0648C70.2593 53.6013 70.2822 54.126 70.3775 54.7471C67.8723 57.5762 68.6084 58.0729 63.599 59.1149C58.5308 60.1705 61.5084 62.0497 63.4518 62.5409C65.8086 63.1365 71.2607 63.9801 74.9456 58.7685L74.7988 59.3632C75.7818 60.1578 75.7153 65.0745 75.8547 68.5874C75.9942 72.1005 76.227 75.3787 76.9356 77.3116C77.6442 79.244 78.4804 84.2225 85.064 82.7966C90.5663 81.6051 94.7732 79.8903 95.1565 63.9374Z" fill="white"/>
<path d="M109.775 54.0522C100.49 55.9876 99.8514 52.8109 99.8514 52.8109C109.655 38.1109 113.753 19.4514 110.216 14.8846C100.568 2.42726 83.8666 8.31879 83.5878 8.47174L83.4981 8.48797C81.6637 8.10316 79.6108 7.87392 77.3035 7.83586C73.1021 7.76629 69.9153 8.94888 67.497 10.8021C67.497 10.8021 37.7029 -1.60121 39.0886 26.4015C39.3834 32.3589 47.5382 71.4776 57.2649 59.6619C60.82 55.3413 64.255 51.6881 64.255 51.6881C65.9611 52.8334 68.0035 53.4176 70.1447 53.2078L70.311 53.0651C70.2593 53.6016 70.2829 54.1263 70.3776 54.7474C67.8719 57.5765 68.6082 58.0732 63.5991 59.1152C58.5306 60.1707 61.5081 62.05 63.4522 62.5412C65.809 63.1367 71.2614 63.9804 74.9456 58.7688L74.7986 59.3634C75.7804 60.1581 76.4699 64.5324 76.3543 68.4976C76.2388 72.463 76.1616 75.1854 76.9352 77.3118C77.7088 79.4383 78.4798 84.2228 85.0647 82.7969C90.567 81.6054 93.4183 78.5176 93.815 73.3669C94.0964 69.7052 94.7335 70.2465 94.7737 66.9727L95.2846 65.4228C95.8738 60.4591 95.3782 58.8578 98.7681 59.6026L99.5919 59.6757C102.087 59.7904 105.352 59.2702 107.269 58.37C111.396 56.4346 113.844 53.2031 109.774 54.0522H109.775Z" fill="white"/>
<path d="M75.3447 56.8994C75.0891 66.1356 75.4089 75.4361 76.3033 77.6965C77.1981 79.9568 79.1132 84.3533 85.6986 82.9277C91.2004 81.7358 93.2022 79.4292 94.0709 74.3378C94.7106 70.592 95.944 60.1889 96.1022 58.0574" stroke="#E5E5E8" stroke-width="2.87588" stroke-linecap="round" stroke-linejoin="round"/>
<path d="M67.4527 10.6006C67.4527 10.6006 37.6384 -1.71328 39.0244 26.2894C39.3192 32.2468 47.4745 71.3668 57.2011 59.5505C60.7554 55.2294 63.97 51.8404 63.97 51.8404" stroke="#E5E5E8" stroke-width="2.87588" stroke-linecap="round" stroke-linejoin="round"/>
<path d="M83.5561 8.34766C82.5241 8.67465 100.141 1.83985 110.152 14.7674C113.689 19.3344 109.591 37.9939 99.7874 52.6942" stroke="#E5E5E8" stroke-width="2.87588" stroke-linecap="round" stroke-linejoin="round"/>
<path d="M99.7879 52.6956C99.7879 52.6956 100.427 55.8733 109.712 53.9366C113.78 53.0875 111.332 56.3193 107.206 58.2557C103.82 59.8438 96.2278 60.2508 96.1037 58.0563C95.7846 52.3942 100.099 54.1144 99.7879 52.6956ZM99.7879 52.6956C99.5064 51.4179 97.5769 50.1639 96.3005 47.0367C95.1862 44.3072 81.0176 23.3757 100.23 26.4844C100.934 26.3372 95.219 8.0176 77.2391 7.71971C59.2633 7.42182 59.8531 30.0588 59.8531 30.0588" stroke="#E5E5E8" stroke-width="2.87588" stroke-linecap="round" stroke-linejoin="bevel"/>
<path d="M70.3133 54.6328C67.8072 57.4617 68.5442 57.9585 63.5347 59.0008C58.4662 60.0565 61.4441 61.9354 63.3876 62.4264C65.7444 63.0223 71.1969 63.866 74.881 58.6531C76.0029 57.0659 74.8744 54.5334 73.3333 53.8878C72.5886 53.5761 71.593 53.1855 70.3133 54.6328Z" stroke="#E5E5E8" stroke-width="2.87588" stroke-linecap="round" stroke-linejoin="round"/>
<path d="M70.1517 54.5818C69.8992 52.9185 70.6925 50.9393 71.5427 48.6237C72.8204 45.1494 75.7684 41.6746 73.4102 30.6537C71.6524 22.441 59.8624 28.9445 59.855 30.0581C59.8478 31.1713 60.3883 35.7024 59.658 40.979C58.7052 47.8643 63.9936 53.6876 70.0832 53.0918" stroke="#E5E5E8" stroke-width="2.87588" stroke-linecap="round" stroke-linejoin="round"/>
<path d="M67.3457 29.8957C67.2925 30.276 68.0348 31.2909 69.0025 31.4265C69.9687 31.5627 70.7956 30.7696 70.848 30.3896C70.9004 30.0093 70.1592 29.5903 69.191 29.4542C68.2243 29.3178 67.397 29.5163 67.3459 29.8957H67.3457Z" fill="#E5E5E8" stroke="#E5E5E8" stroke-width="0.958617"/>
<path d="M96.7786 29.1183C96.831 29.4986 96.0897 30.5135 95.1217 30.6491C94.1549 30.7853 93.3279 29.9922 93.275 29.6122C93.2238 29.2319 93.9653 28.8129 94.9323 28.6768C95.8994 28.5406 96.7261 28.7389 96.7786 29.1185V29.1183Z" fill="#E5E5E8" stroke="#E5E5E8" stroke-width="0.479309"/>
<path d="M100.224 26.4824C100.383 29.4658 99.5877 31.4978 99.4875 34.6737C99.3391 39.2899 101.665 44.5735 98.1602 49.8637" stroke="#E5E5E8" stroke-width="2.87588" stroke-linecap="round" stroke-linejoin="round"/>
</g>
<defs>
<clipPath id="clip0_32256_75050">
<rect width="76.9231" height="80" fill="white" transform="translate(37.0386 5)"/>
</clipPath>
</defs>
</svg>
