<svg width="150" height="90" viewBox="0 0 150 90" fill="none" xmlns="http://www.w3.org/2000/svg">
<g clip-path="url(#clip0_32256_75029)">
<path d="M120.212 44.4471C120.212 38.58 112.746 33.0186 101.3 29.5714C103.942 18.0886 102.77 8.95429 97.5978 6.02857C96.4048 5.34286 95.0115 5.01857 93.489 5.01857V9.04286C94.3322 9.04286 95.0115 9.20571 95.5789 9.51143C98.0753 10.92 99.1566 16.2829 98.3133 23.1786C98.0886 24.962 97.7762 26.7336 97.3772 28.4871C93.7821 27.62 89.8576 26.9514 85.7299 26.5186C83.2539 23.1786 80.6864 20.1457 78.1001 17.4914C84.0797 12.0214 89.6922 9.02429 93.5078 9.02429V5C88.4629 5 81.8606 8.53857 75.1843 14.6771C68.5065 8.57429 61.9028 5.07143 56.8592 5.07143V9.09714C60.656 9.09714 66.2859 12.0757 72.2655 17.51C69.5342 20.3387 67.0034 23.3487 64.6908 26.5186C60.5457 26.9514 56.6212 27.6186 53.0262 28.5043C52.6214 26.7754 52.3027 25.0281 52.0712 23.2686C51.209 16.3729 52.2744 11.0114 54.7489 9.58429C55.3005 9.25857 56.0145 9.11429 56.8592 9.11429V5.09C55.3179 5.09 53.9246 5.41571 52.7141 6.10143C47.5603 9.02571 46.4036 18.1443 49.0639 29.5886C37.6561 33.0571 30.2266 38.5971 30.2266 44.4471C30.2266 50.3143 37.6924 55.8757 49.1379 59.3229C46.4964 70.8057 47.6691 79.9414 52.8418 82.8657C54.0349 83.5514 55.4282 83.8771 56.9695 83.8771C62.0131 83.8771 68.6168 80.3386 75.2931 74.2C81.9694 80.3014 88.5732 83.8043 93.6167 83.8043C95.1566 83.8043 96.5499 83.48 97.7618 82.7929C102.914 79.8686 104.071 70.7514 101.412 59.3057C112.784 55.8571 120.212 50.2957 120.212 44.4471ZM96.3307 32.4043C95.6178 34.8183 94.7916 37.1985 93.8547 39.5371C93.096 38.0704 92.2946 36.6255 91.4512 35.2043C90.6072 33.7744 89.7264 32.3659 88.8097 30.98C91.4149 31.3586 93.9273 31.8257 96.3307 32.4043ZM87.9302 51.6329C86.5563 53.9919 85.0814 56.2926 83.5093 58.5286C80.7525 58.7673 77.9865 58.8879 75.2191 58.89C72.4499 58.89 69.6792 58.7643 66.9651 58.5471C65.3914 56.3209 63.9107 54.0324 62.5268 51.6871C61.1505 49.3471 59.8774 46.9496 58.7112 44.5014C59.871 42.0479 61.1378 39.6447 62.508 37.2986C63.8819 34.9391 65.3568 32.6379 66.9289 30.4014C69.6856 30.1627 72.4517 30.0421 75.2191 30.04C77.9883 30.04 80.759 30.1671 83.473 30.3829C85.0468 32.6095 86.5275 34.8986 87.9113 37.2443C89.2876 39.5844 90.5607 41.9819 91.727 44.43C90.5599 46.88 89.2933 49.2829 87.9302 51.6329ZM93.8547 49.2857C94.8175 51.6387 95.6623 54.0368 96.3859 56.4714C93.891 57.0681 91.3692 57.5496 88.8286 57.9143C89.7453 56.5105 90.6261 55.0844 91.4701 53.6371C92.3003 52.2057 93.0954 50.7548 93.8547 49.2857ZM75.2554 68.5486C73.4563 66.7102 71.7545 64.7819 70.1567 62.7714C71.8069 62.8429 73.4949 62.8986 75.2002 62.8986C76.9011 62.902 78.6018 62.8596 80.3003 62.7714C78.7257 64.7852 77.0416 66.7138 75.2554 68.5486ZM61.6096 57.9157C59.082 57.5544 56.5728 57.0782 54.09 56.4886C54.8029 54.0755 55.6292 51.6963 56.5661 49.3586C57.3241 50.8253 58.1251 52.2702 58.9681 53.6914C59.8189 55.1173 60.6996 56.5257 61.6096 57.9157ZM75.1654 20.3443C76.964 22.1832 78.6653 24.1119 80.2626 26.1229C78.6124 26.0514 76.9245 25.9971 75.2191 25.9971C73.4949 25.9971 71.7895 26.0329 70.1204 26.1229C71.6945 24.109 73.3782 22.1805 75.1639 20.3457L75.1654 20.3443ZM61.5907 30.98C59.7715 33.7665 58.0945 36.6405 56.5661 39.5914C55.6031 37.2385 54.7584 34.8404 54.0349 32.4057C56.4369 31.8457 58.9695 31.3586 61.5907 30.98ZM44.9914 53.5829C38.4994 50.8557 34.2991 47.2829 34.2991 44.4471C34.2991 41.6129 38.4994 38.02 44.9914 35.3114C46.569 34.6443 48.2932 34.0486 50.0712 33.4886C51.1935 37.2408 52.5726 40.9139 54.1989 44.4829C52.5906 48.0346 51.2304 51.6903 50.1278 55.4243C48.386 54.8931 46.6718 54.2795 44.9914 53.5829ZM54.8607 79.3814C52.3643 77.9729 51.2831 72.61 52.1263 65.7143C52.3295 64.0171 52.659 62.23 53.0624 60.4071C56.6575 61.2729 60.582 61.9414 64.7097 62.3743C67.1857 65.7143 69.7532 68.7471 72.3396 71.4014C66.3599 76.8729 60.7475 79.8686 56.9318 79.8686C56.1074 79.85 55.4108 79.6886 54.8607 79.3814ZM98.367 65.6243C99.2291 72.5214 98.1638 77.8814 95.6878 79.31C95.1377 79.6343 94.4222 79.7786 93.5789 79.7786C89.7822 79.7786 84.1523 76.8 78.1726 71.3643C80.9039 68.536 83.4348 65.5266 85.7473 62.3571C89.8925 61.9229 93.817 61.2557 97.4135 60.3714C97.825 62.1046 98.1433 63.858 98.367 65.6243ZM105.428 53.5814C103.85 54.25 102.126 54.8457 100.348 55.4057C99.2258 51.6535 97.8467 47.9803 96.2204 44.4114C97.8292 40.8597 99.1899 37.2041 100.293 33.47C102.107 34.03 103.833 34.6443 105.445 35.3129C111.939 38.0386 116.139 41.6129 116.139 44.4471C116.122 47.2814 111.921 50.8743 105.428 53.5814Z" fill="white"/>
<path d="M74.8973 52.9258C75.998 52.9258 77.0879 52.7124 78.1048 52.2978C79.1217 51.8832 80.0457 51.2755 80.824 50.5094C81.6023 49.7433 82.2197 48.8339 82.641 47.8329C83.0622 46.832 83.279 45.7592 83.279 44.6758C83.279 43.5924 83.0622 42.5196 82.641 41.5186C82.2197 40.5177 81.6023 39.6082 80.824 38.8421C80.0457 38.0761 79.1217 37.4684 78.1048 37.0538C77.0879 36.6392 75.998 36.4258 74.8973 36.4258C72.6743 36.4258 70.5424 37.295 68.9706 38.8421C67.3987 40.3893 66.5156 42.4877 66.5156 44.6758C66.5156 46.8638 67.3987 48.9622 68.9706 50.5094C70.5424 52.0566 72.6743 52.9258 74.8973 52.9258Z" fill="white"/>
</g>
<defs>
<clipPath id="clip0_32256_75029">
<rect width="90.4348" height="80" fill="white" transform="translate(30 5)"/>
</clipPath>
</defs>
</svg>
