<svg width="270" height="270" viewBox="0 0 270 270" fill="none" xmlns="http://www.w3.org/2000/svg">
<path d="M137.98 220.282V137.048" stroke="#02021E" stroke-width="2.5" stroke-miterlimit="3.004" stroke-linecap="round" stroke-linejoin="round"/>
<path d="M137.98 137.096C150.552 137.096 160.744 126.905 160.744 114.333C160.744 101.76 150.552 91.5688 137.98 91.5688C125.407 91.5688 115.216 101.76 115.216 114.333C115.216 126.905 125.407 137.096 137.98 137.096Z" stroke="#02021E" stroke-width="2.5" stroke-miterlimit="3.004" stroke-linecap="round" stroke-linejoin="round"/>
<path d="M137.98 222.006C186.031 222.006 224.985 183.052 224.985 135.001C224.985 86.9491 186.031 47.9956 137.98 47.9956C89.9281 47.9956 50.9746 86.9491 50.9746 135.001C50.9746 183.052 89.9281 222.006 137.98 222.006Z" stroke="#02021E" stroke-width="2.5" stroke-miterlimit="3.004" stroke-linecap="round" stroke-linejoin="round"/>
<path d="M141.518 96.8276C143.1 97.2001 147.383 98.4569 150.875 102.414C153.481 105.393 154.459 108.512 154.831 110.141" stroke="#02021E" stroke-width="2.5" stroke-miterlimit="3.004" stroke-linecap="round" stroke-linejoin="round"/>
</svg>
