<svg width="270" height="270" viewBox="0 0 270 270" fill="none" xmlns="http://www.w3.org/2000/svg">
<path d="M190.584 223.448H70.4337C54.7457 223.448 42.0371 210.739 42.0371 195.051V74.9009C42.0371 59.213 54.7457 46.5044 70.4337 46.5044H190.584C206.272 46.5044 218.98 59.213 218.98 74.9009V195.051C218.98 210.739 206.272 223.448 190.584 223.448Z" stroke="#02021E" stroke-width="2.5" stroke-miterlimit="3.004" stroke-linecap="round" stroke-linejoin="round"/>
<path d="M182.668 90.7759H108.697" stroke="#02021E" stroke-width="2.5" stroke-miterlimit="3.004" stroke-linecap="round" stroke-linejoin="round"/>
<path d="M152.689 179.224H78.8584" stroke="#02021E" stroke-width="2.5" stroke-miterlimit="3.004" stroke-linecap="round" stroke-linejoin="round"/>
<path d="M115.681 135H78.8584" stroke="#02021E" stroke-width="2.5" stroke-miterlimit="3.004" stroke-linecap="round" stroke-linejoin="round"/>
<path d="M182.529 135H145.707" stroke="#02021E" stroke-width="2.5" stroke-miterlimit="3.004" stroke-linecap="round" stroke-linejoin="round"/>
<path d="M93.755 105.672C101.982 105.672 108.652 99.0031 108.652 90.7759C108.652 82.5488 101.982 75.8794 93.755 75.8794C85.5278 75.8794 78.8584 82.5488 78.8584 90.7759C78.8584 99.0031 85.5278 105.672 93.755 105.672Z" stroke="#02021E" stroke-width="2.5" stroke-miterlimit="3.004" stroke-linecap="round" stroke-linejoin="round"/>
<path d="M167.727 195.379C175.954 195.379 182.623 188.71 182.623 180.482C182.623 172.255 175.954 165.586 167.727 165.586C159.499 165.586 152.83 172.255 152.83 180.482C152.83 188.71 159.499 195.379 167.727 195.379Z" stroke="#02021E" stroke-width="2.5" stroke-miterlimit="3.004" stroke-linecap="round" stroke-linejoin="round"/>
<path d="M130.765 149.897C138.992 149.897 145.661 143.227 145.661 135C145.661 126.773 138.992 120.104 130.765 120.104C122.538 120.104 115.868 126.773 115.868 135C115.868 143.227 122.538 149.897 130.765 149.897Z" stroke="#02021E" stroke-width="2.5" stroke-miterlimit="3.004" stroke-linecap="round" stroke-linejoin="round"/>
</svg>
