<svg width="150" height="90" viewBox="0 0 150 90" fill="none" xmlns="http://www.w3.org/2000/svg">
<g clip-path="url(#clip0_32331_128962)">
<path fill-rule="evenodd" clip-rule="evenodd" d="M48.7684 33.9023L74.9079 85.0651L30.9721 33.9023H48.7684Z" fill="white"/>
<path fill-rule="evenodd" clip-rule="evenodd" d="M101.053 33.9023L74.914 85.0651L118.85 33.9023H101.053Z" fill="white"/>
<path fill-rule="evenodd" clip-rule="evenodd" d="M48.7686 33.9023H101.048L74.9081 85.0651L48.7686 33.9023Z" fill="white"/>
<path fill-rule="evenodd" clip-rule="evenodd" d="M74.9081 5.54785L50.1444 8.16553L48.7686 33.9023L74.9081 5.54785Z" fill="white"/>
<path fill-rule="evenodd" clip-rule="evenodd" d="M74.908 5.54785L99.6717 8.16553L101.048 33.9023L74.908 5.54785Z" fill="white"/>
<path fill-rule="evenodd" clip-rule="evenodd" d="M118.85 33.9028L99.6777 8.16602L101.053 33.9028H118.85Z" fill="white"/>
<path fill-rule="evenodd" clip-rule="evenodd" d="M30.9721 33.9028L50.1442 8.16602L48.7684 33.9028H30.9721Z" fill="white"/>
<path fill-rule="evenodd" clip-rule="evenodd" d="M74.9081 5.54785L48.7686 33.9023H101.048L74.9081 5.54785Z" fill="white"/>
</g>
<defs>
<clipPath id="clip0_32331_128962">
<rect width="88.3783" height="80" fill="white" transform="translate(30.8109 5.15625)"/>
</clipPath>
</defs>
</svg>
