<svg width="270" height="270" viewBox="0 0 270 270" fill="none" xmlns="http://www.w3.org/2000/svg">
<path d="M77.7402 75.4139C92.7409 60.4347 113.254 51.207 135.875 51.207C156.068 51.207 174.585 58.563 188.999 70.7974" stroke="#02021E" stroke-width="2.5" stroke-linecap="round" stroke-linejoin="round"/>
<path d="M111.259 213.673C77.2867 203.185 52.6035 171.586 52.6035 134.233C52.6035 131.029 52.7851 127.867 53.1377 124.759" stroke="#02021E" stroke-width="2.5" stroke-linecap="round" stroke-linejoin="round"/>
<path d="M217.419 119.172C218.321 124.094 218.793 129.166 218.793 134.349C218.793 169.097 197.637 198.874 167.586 211.345" stroke="#02021E" stroke-width="2.5" stroke-linecap="round" stroke-linejoin="round"/>
<path d="M128.948 188.069C102.158 184.61 81.4648 161.916 81.4648 134.436C81.4648 132.901 81.5294 131.382 81.6585 129.879" stroke="#02021E" stroke-width="2.5" stroke-linecap="round" stroke-linejoin="round"/>
<path d="M186.717 116.845C188.498 122.266 189.464 128.066 189.464 134.096C189.464 156.426 176.233 175.598 157.344 183.879" stroke="#02021E" stroke-width="2.5" stroke-linecap="round" stroke-linejoin="round"/>
<path d="M91.2402 103.811C101.026 89.7452 117.37 80.5347 135.879 80.5347C148.984 80.5347 161.004 85.1558 170.378 92.8419" stroke="#02021E" stroke-width="2.5" stroke-linecap="round" stroke-linejoin="round"/>
<path d="M81.7723 129.951L100.33 133.105C102.039 133.397 103.384 131.685 102.696 130.11L79.2196 76.7128C78.5948 75.2865 76.7043 74.9631 75.6309 76.1031L35.504 118.689C34.3184 119.946 35.018 122.008 36.7269 122.295L53.0362 125.068" stroke="#02021E" stroke-width="2.5" stroke-linecap="round" stroke-linejoin="round"/>
<path d="M170.39 93.0237L155.985 110.426C154.885 111.755 155.693 113.783 157.41 113.98L215.449 120.555C216.996 120.731 218.218 119.258 217.767 117.758L200.779 61.5971C200.279 59.9375 198.142 59.5052 197.036 60.8394L188.989 70.5571" stroke="#02021E" stroke-width="2.5" stroke-linecap="round" stroke-linejoin="round"/>
<path d="M157.064 184.088L149.703 164.791C149.091 163.184 146.932 162.897 145.916 164.292L111.673 211.54C110.758 212.803 111.439 214.58 112.96 214.92L170.064 227.585C171.75 227.956 173.175 226.311 172.564 224.704L167.378 211.11" stroke="#02021E" stroke-width="2.5" stroke-linecap="round" stroke-linejoin="round"/>
</svg>
