<svg width="270" height="270" viewBox="0 0 270 270" fill="none" xmlns="http://www.w3.org/2000/svg">
<path d="M231.363 127.784C231.363 78.911 192.021 39.5688 143.147 39.5688C94.4258 39.5688 54.9316 79.0631 54.9316 127.784V162.868V194.402C54.9316 206.316 64.6151 216 76.5292 216H143.147C191.868 216 231.363 176.506 231.363 127.784Z" stroke="#02021E" stroke-width="2.5" stroke-miterlimit="3.004" stroke-linecap="round" stroke-linejoin="round"/>
<path d="M140.666 162.535C141.276 163.143 142.189 163.397 143.002 163.397C143.814 163.397 144.677 163.143 145.337 162.535L175.746 132.139C178.691 129.201 180.62 125.199 180.62 120.74C180.62 115.674 178.285 111.064 174.477 108.075C167.878 102.553 158.08 103.871 151.937 109.747L143.002 118.815L133.457 109.139C130.513 106.201 126.452 104.276 121.73 104.276C116.603 104.276 112.186 106.809 109.191 110.406C103.657 116.941 104.977 126.87 110.866 132.798L140.666 162.535Z" stroke="#02021E" stroke-width="2.5" stroke-miterlimit="3.004" stroke-linecap="round" stroke-linejoin="round"/>
</svg>
