<svg width="270" height="270" viewBox="0 0 270 270" fill="none" xmlns="http://www.w3.org/2000/svg">
<path d="M217.23 82.9847L174.88 101.3C173.109 102.064 171.051 101.43 170.019 99.8036L141.019 54.0462C138.227 49.6396 131.786 49.6396 128.995 54.0462L99.994 99.8036C98.9622 101.43 96.8984 102.064 95.1334 101.3L52.7783 82.9847C47.4127 80.6648 41.6886 85.4346 43.0245 91.115L63.8518 184.223C66.8876 198.462 74.8058 206.224 87.0306 206.224H183.042C195.267 206.224 202.751 197.302 206.189 184.272L226.978 91.115C228.308 85.4346 222.59 80.6648 217.224 82.9847H217.23Z" stroke="#02021E" stroke-width="2.5" stroke-linecap="round" stroke-linejoin="round"/>
<path d="M205.293 185.276H64.707" stroke="#02021E" stroke-width="2.5" stroke-linecap="round" stroke-linejoin="round"/>
</svg>
