<svg width="150" height="90" viewBox="0 0 150 90" fill="none" xmlns="http://www.w3.org/2000/svg">
<g clip-path="url(#clip0_32256_84620)">
<mask id="mask0_32256_84620" style="mask-type:luminance" maskUnits="userSpaceOnUse" x="35" y="5" width="80" height="80">
<path d="M115 5H35V85H115V5Z" fill="white"/>
</mask>
<g mask="url(#mask0_32256_84620)">
<path d="M35 15C35 9.47715 39.4771 5 45 5H105C110.523 5 115 9.47715 115 15V75C115 80.523 110.523 85 105 85H45C39.4771 85 35 80.523 35 75V15Z" fill="white"/>
<path d="M89.1809 38.5184C89.1809 38.5184 85.1209 51.2384 84.8206 52.3184C84.7006 51.2584 81.7406 28.3984 81.7406 28.3984C74.8206 28.3984 71.1406 33.3184 69.1806 38.5184C69.1806 38.5184 64.2406 51.2784 63.8406 52.3384C63.8206 51.3384 63.0806 38.6384 63.0806 38.6384C62.6606 32.2584 56.8406 28.3984 52.1206 28.3984L57.8006 63.0187C65.0406 62.9987 68.9406 58.0987 70.9806 52.8784C70.9806 52.8784 75.3206 41.6184 75.5006 41.1184C75.5406 41.5984 78.6206 63.0187 78.6206 63.0187C85.8809 63.0187 89.8004 58.4387 91.9009 53.4184L102.08 28.3984C94.9004 28.3984 91.1209 33.2984 89.1809 38.5184Z" fill="#02021E"/>
</g>
</g>
<defs>
<clipPath id="clip0_32256_84620">
<rect width="80" height="80" fill="white" transform="translate(35 5)"/>
</clipPath>
</defs>
</svg>
