<svg width="150" height="90" viewBox="0 0 150 90" fill="none" xmlns="http://www.w3.org/2000/svg">
<g clip-path="url(#clip0_32256_75039)">
<path d="M74.7298 4.5C52.787 4.5 34.9584 22.3286 34.9584 44.2714C34.9584 66.2143 52.787 84.0429 74.7298 84.0429C96.6727 84.0429 114.501 66.2143 114.501 44.2714C114.501 22.3286 96.6727 4.5 74.7298 4.5ZM39.0155 44.2714C39.0155 39.0714 40.1584 34.1571 42.1012 29.7L59.187 76.4428C47.187 70.6143 39.0155 58.4429 39.0155 44.2714ZM74.7298 79.9857C71.2441 79.9857 67.8155 79.4714 64.6155 78.5571L75.3584 47.3571L86.3869 77.4714C86.4441 77.6429 86.5584 77.8143 86.6155 77.9286C82.9012 79.3 78.9012 79.9857 74.7298 79.9857ZM79.7012 27.4714C81.8155 27.3571 83.7584 27.1286 83.7584 27.1286C85.7012 26.9 85.4727 24.1 83.5298 24.1571C83.5298 24.1571 77.7584 24.6143 73.9869 24.6143C70.5012 24.6143 64.5584 24.1571 64.5584 24.1571C62.6155 24.0429 62.4441 26.9571 64.3298 27.1286C64.3298 27.1286 66.1584 27.3571 68.0441 27.4714L73.6441 42.7286L65.8155 66.2143L52.8441 27.4714C54.9584 27.3571 56.9012 27.1286 56.9012 27.1286C58.8441 26.9 58.6155 24.1 56.6727 24.1571C56.6727 24.1571 50.9012 24.6143 47.187 24.6143C46.5012 24.6143 45.7584 24.6143 44.9012 24.5571C51.3012 14.9 62.2727 8.5 74.7869 8.5C84.1012 8.5 92.5584 12.0429 98.9584 17.9286C98.7869 17.9286 98.6727 17.8714 98.5012 17.8714C95.0155 17.8714 92.5012 20.9 92.5012 24.2143C92.5012 27.1857 94.2155 29.6429 95.9869 32.6143C97.3584 35.0143 98.9584 38.0429 98.9584 42.4429C98.9584 45.4714 98.0441 49.3571 96.2155 53.9857L92.6155 65.9286L79.7012 27.4714ZM92.7298 75.1286L103.644 43.5857C105.701 38.5 106.387 34.4429 106.387 30.7857C106.387 29.4714 106.273 28.2714 106.158 27.1286C108.958 32.2143 110.501 38.0429 110.501 44.2714C110.501 57.4714 103.358 68.9571 92.7298 75.1286Z" fill="white"/>
</g>
<defs>
<clipPath id="clip0_32256_75039">
<rect width="80" height="80" fill="white" transform="translate(34.5 4.5)"/>
</clipPath>
</defs>
</svg>
