<svg width="150" height="90" viewBox="0 0 150 90" fill="none" xmlns="http://www.w3.org/2000/svg">
<g clip-path="url(#clip0_32256_75044)">
<path d="M50.0583 35.0441C50.0583 36.4672 50.2121 37.621 50.4813 38.4672C50.789 39.3133 51.1736 40.2364 51.7121 41.2364C51.9044 41.5441 51.9813 41.8518 51.9813 42.121C51.9813 42.5056 51.7506 42.8903 51.2506 43.2749L48.8275 44.8903C48.4814 45.121 48.1352 45.2364 47.8275 45.2364C47.4429 45.2364 47.0583 45.0441 46.6737 44.6979C46.1352 44.121 45.6737 43.5056 45.2891 42.8903C44.9045 42.2364 44.5199 41.5056 44.0968 40.621C41.0968 44.1595 37.3276 45.9287 32.7892 45.9287C29.5585 45.9287 26.9816 45.0056 25.097 43.1595C23.2124 41.3133 22.2509 38.8518 22.2509 35.7749C22.2509 32.5056 23.4047 29.8518 25.7508 27.8518C28.0969 25.8518 31.2123 24.8518 35.1738 24.8518C36.4815 24.8518 37.8276 24.9672 39.2507 25.1595C40.6737 25.3518 42.1353 25.6595 43.6737 26.0056V23.1979C43.6737 20.2749 43.0583 18.2364 41.866 17.0441C40.6353 15.8518 38.5584 15.2749 35.5969 15.2749C34.2507 15.2749 32.8661 15.4287 31.4431 15.7749C30.02 16.121 28.6354 16.5441 27.2893 17.0826C26.6739 17.3518 26.2124 17.5056 25.9431 17.5826C25.6739 17.6595 25.4816 17.6979 25.3277 17.6979C24.7893 17.6979 24.5201 17.3133 24.5201 16.5056V14.621C24.5201 14.0056 24.597 13.5441 24.7893 13.2749C24.9816 13.0056 25.3277 12.7364 25.8662 12.4672C27.2123 11.7749 28.8277 11.1979 30.7123 10.7364C32.5969 10.2364 34.5969 10.0056 36.7122 10.0056C41.2891 10.0056 44.6352 11.0441 46.7891 13.121C48.9044 15.1979 49.9813 18.3518 49.9813 22.5826V35.0441H50.0583ZM34.443 40.8902C35.7123 40.8902 37.0199 40.6595 38.4045 40.1979C39.7891 39.7364 41.0199 38.8903 42.0583 37.7364C42.6737 37.0056 43.1353 36.1979 43.366 35.2749C43.5968 34.3518 43.7506 33.2364 43.7506 31.9287V30.3133C42.6353 30.0441 41.443 29.8133 40.2122 29.6595C38.9815 29.5056 37.7892 29.4287 36.5969 29.4287C34.02 29.4287 32.1354 29.9287 30.8661 30.9672C29.5969 32.0056 28.9816 33.4672 28.9816 35.3903C28.9816 37.1979 29.4431 38.5441 30.4046 39.4672C31.3277 40.4287 32.6738 40.8902 34.443 40.8902ZM65.3273 45.0441C64.635 45.0441 64.1735 44.9287 63.8658 44.6595C63.5581 44.4287 63.2889 43.8903 63.0581 43.1595L54.0198 13.4287C53.789 12.6595 53.6736 12.1595 53.6736 11.8902C53.6736 11.2749 53.9813 10.9287 54.5967 10.9287H58.3659C59.0966 10.9287 59.5966 11.0441 59.8659 11.3133C60.1735 11.5441 60.4043 12.0826 60.6351 12.8133L67.0965 38.2749L73.0965 12.8133C73.2888 12.0441 73.5196 11.5441 73.8272 11.3133C74.1349 11.0826 74.6734 10.9287 75.3657 10.9287H78.4426C79.1733 10.9287 79.6733 11.0441 79.981 11.3133C80.2887 11.5441 80.5579 12.0826 80.7118 12.8133L86.7887 38.5826L93.4424 12.8133C93.6732 12.0441 93.9424 11.5441 94.2116 11.3133C94.5193 11.0826 95.0193 10.9287 95.7116 10.9287H99.2885C99.9039 10.9287 100.25 11.2364 100.25 11.8902C100.25 12.0826 100.212 12.2749 100.173 12.5056C100.135 12.7364 100.058 13.0441 99.9039 13.4672L90.6348 43.1979C90.404 43.9672 90.1348 44.4672 89.8271 44.6979C89.5194 44.9287 89.0194 45.0826 88.3656 45.0826H85.0579C84.3271 45.0826 83.8271 44.9672 83.5195 44.6979C83.2118 44.4287 82.9425 43.9287 82.7887 43.1595L76.8272 18.3518L70.9042 43.121C70.7119 43.8903 70.4811 44.3903 70.1734 44.6595C69.8657 44.9287 69.3273 45.0441 68.635 45.0441H65.3273ZM114.75 46.0826C112.75 46.0826 110.75 45.8518 108.827 45.3903C106.904 44.9287 105.404 44.4287 104.404 43.8518C103.788 43.5056 103.365 43.121 103.212 42.7749C103.058 42.4287 102.981 42.0441 102.981 41.6979V39.7364C102.981 38.9287 103.288 38.5441 103.865 38.5441C104.096 38.5441 104.327 38.5826 104.558 38.6595C104.788 38.7364 105.135 38.8903 105.519 39.0441C106.827 39.621 108.25 40.0826 109.75 40.3903C111.288 40.6979 112.788 40.8518 114.327 40.8518C116.75 40.8518 118.634 40.4287 119.942 39.5826C121.25 38.7364 121.942 37.5056 121.942 35.9287C121.942 34.8518 121.596 33.9672 120.904 33.2364C120.211 32.5056 118.904 31.8518 117.019 31.2364L111.442 29.5056C108.635 28.621 106.558 27.3133 105.288 25.5826C104.019 23.8903 103.365 22.0056 103.365 20.0056C103.365 18.3902 103.712 16.9672 104.404 15.7364C105.096 14.5056 106.019 13.4287 107.173 12.5826C108.327 11.6979 109.635 11.0441 111.173 10.5826C112.711 10.121 114.327 9.92871 116.019 9.92871C116.865 9.92871 117.75 9.96717 118.596 10.0826C119.481 10.1979 120.288 10.3518 121.096 10.5056C121.865 10.6979 122.596 10.8902 123.288 11.121C123.981 11.3518 124.519 11.5826 124.904 11.8133C125.442 12.121 125.827 12.4287 126.057 12.7749C126.288 13.0826 126.404 13.5056 126.404 14.0441V15.8518C126.404 16.6595 126.096 17.0826 125.519 17.0826C125.211 17.0826 124.711 16.9287 124.057 16.621C121.865 15.621 119.404 15.121 116.673 15.121C114.481 15.121 112.75 15.4672 111.558 16.1979C110.365 16.9287 109.75 18.0441 109.75 19.621C109.75 20.6979 110.135 21.621 110.904 22.3518C111.673 23.0826 113.096 23.8133 115.135 24.4672L120.596 26.1979C123.365 27.0826 125.365 28.3133 126.557 29.8903C127.75 31.4672 128.327 33.2749 128.327 35.2749C128.327 36.9287 127.981 38.4287 127.327 39.7364C126.634 41.0441 125.711 42.1979 124.519 43.121C123.327 44.0826 121.904 44.7749 120.25 45.2749C118.519 45.8133 116.711 46.0826 114.75 46.0826Z" fill="white"/>
<path fill-rule="evenodd" clip-rule="evenodd" d="M122.022 64.781C109.368 74.1271 90.9835 79.0886 75.1759 79.0886C53.0223 79.0886 33.061 70.8963 17.9842 57.281C16.7919 56.204 17.8688 54.7425 19.2919 55.5886C35.5994 65.0502 55.7146 70.781 76.5221 70.781C90.5604 70.781 105.983 67.8579 120.175 61.8579C122.291 60.8963 124.099 63.2425 122.022 64.781Z" fill="white"/>
<path fill-rule="evenodd" clip-rule="evenodd" d="M127.293 58.7816C125.678 56.7047 116.601 57.7816 112.485 58.2816C111.255 58.4354 111.062 57.3585 112.178 56.5508C119.408 51.4739 131.293 52.9354 132.678 54.6278C134.062 56.3585 132.293 68.2431 125.524 73.9354C124.485 74.8201 123.485 74.3585 123.947 73.2047C125.485 69.397 128.908 60.8201 127.293 58.7816Z" fill="white"/>
</g>
<defs>
<clipPath id="clip0_32256_75044">
<rect width="116.922" height="70" fill="white" transform="translate(16.8242 9.5)"/>
</clipPath>
</defs>
</svg>
