<svg width="150" height="90" viewBox="0 0 150 90" fill="none" xmlns="http://www.w3.org/2000/svg">
<g clip-path="url(#clip0_32256_83295)">
<path d="M70.8494 80.5999C84.0967 78.2597 95.0382 76.3232 95.1638 76.2966L95.3923 76.2481L82.8856 61.3717C76.0069 53.1897 70.3788 46.4636 70.3788 46.4248C70.3788 46.3514 83.2931 10.7883 83.3657 10.6618C83.39 10.6195 92.1786 25.7927 104.67 47.4426C116.364 67.7117 126.006 84.4236 126.095 84.5803L126.258 84.865L86.5109 84.8599L46.7634 84.8548L70.8494 80.5999ZM23.1479 76.0633C23.1479 76.0424 29.0411 65.8124 36.2438 53.33L49.3396 30.6347L64.6013 17.8271C72.9952 10.7829 79.8855 5.01082 79.9132 5.00029C79.9408 4.98976 79.8304 5.26768 79.6678 5.61788C79.5052 5.96808 72.0478 21.9635 63.0958 41.1631L46.8193 76.0717L34.9836 76.0865C28.474 76.0947 23.1479 76.0842 23.1479 76.0633Z" fill="white"/>
</g>
<defs>
<clipPath id="clip0_32256_83295">
<rect width="103.363" height="80" fill="white" transform="translate(23 5)"/>
</clipPath>
</defs>
</svg>
