<svg width="150" height="90" viewBox="0 0 150 90" fill="none" xmlns="http://www.w3.org/2000/svg">
<g clip-path="url(#clip0_32256_75038)">
<path d="M77.1294 50.55H87.2191C90.0882 50.55 91.9053 48.971 91.9053 46.4351C91.9053 44.0428 90.0882 42.3203 87.2191 42.3203H77.1294C76.7947 42.3203 76.5078 42.6074 76.5078 42.8945V49.9758C76.5556 50.3107 76.7947 50.55 77.1294 50.55ZM77.1294 66.8658H87.5538C90.7577 66.8658 92.6704 65.239 92.6704 62.3682C92.6704 59.8801 90.8533 57.8706 87.5538 57.8706H77.1294C76.7947 57.8706 76.5078 58.1576 76.5078 58.4447V66.2438C76.5556 66.6265 76.7947 66.8658 77.1294 66.8658Z" fill="white"/>
<path d="M114.042 5.18752L84.2036 34.9483H89.0811C96.6842 34.9483 101.179 39.733 101.179 44.9483C101.179 49.0631 98.4056 52.0775 95.4409 53.4172C94.9627 53.6086 94.9627 54.2784 95.4887 54.4698C98.9316 55.8095 101.37 59.398 101.37 63.6086C101.37 69.5416 97.4014 74.2784 89.7027 74.2784H68.567C68.2323 74.2784 67.9454 73.9914 67.9454 73.7043V51.1684L35.1899 83.8C34.7595 84.2306 35.0464 84.9961 35.668 84.9961H114.425C114.712 84.9961 114.951 84.7569 114.951 84.4698V5.61814C115.094 5.09182 114.425 4.80474 114.042 5.18752Z" fill="white"/>
</g>
<defs>
<clipPath id="clip0_32256_75038">
<rect width="80" height="80" fill="white" transform="translate(35 5)"/>
</clipPath>
</defs>
</svg>
