<svg width="270" height="270" viewBox="0 0 270 270" fill="none" xmlns="http://www.w3.org/2000/svg">
<path d="M165.353 54.4653H104.929C94.8734 54.4653 85.5631 59.8188 80.5355 68.5705L50.3234 120.895C45.2958 129.6 45.2958 140.353 50.3234 149.105L80.5355 201.429C85.5631 210.134 94.8734 215.534 104.929 215.534H165.353C175.408 215.534 184.718 210.181 189.746 201.429L219.958 149.105C224.985 140.4 224.985 129.646 219.958 120.895L189.746 68.5705C184.718 59.8654 175.454 54.4653 165.353 54.4653Z" stroke="#02021E" stroke-width="2.5" stroke-miterlimit="3.004" stroke-linecap="round" stroke-linejoin="round"/>
<path d="M150.921 92.9653H119.405C114.145 92.9653 109.304 95.7584 106.65 100.32L90.8692 127.6C88.2623 132.162 88.2623 137.748 90.8692 142.31L106.65 169.589C109.257 174.152 114.145 176.945 119.405 176.945H150.921C156.181 176.945 161.023 174.152 163.676 169.589L179.457 142.31C182.064 137.748 182.064 132.162 179.457 127.6L163.676 100.32C161.023 95.805 156.181 92.9653 150.921 92.9653Z" stroke="#02021E" stroke-width="2.5" stroke-miterlimit="3.004" stroke-linecap="round" stroke-linejoin="round"/>
<path d="M90.0312 58.7935L112.143 94.6383" stroke="#02021E" stroke-width="2.5" stroke-miterlimit="3.004" stroke-linecap="round" stroke-linejoin="round"/>
<path d="M159.439 175.173L181.598 211.018" stroke="#02021E" stroke-width="2.5" stroke-miterlimit="3.004" stroke-linecap="round" stroke-linejoin="round"/>
<path d="M181.598 58.7935L159.439 94.6383" stroke="#02021E" stroke-width="2.5" stroke-miterlimit="3.004" stroke-linecap="round" stroke-linejoin="round"/>
<path d="M112.143 175.173L90.0312 211.018" stroke="#02021E" stroke-width="2.5" stroke-miterlimit="3.004" stroke-linecap="round" stroke-linejoin="round"/>
<path d="M48.4141 133.836H88.7278" stroke="#02021E" stroke-width="2.5" stroke-miterlimit="3.004" stroke-linecap="round" stroke-linejoin="round"/>
<path d="M182.482 133.836H222.796" stroke="#02021E" stroke-width="2.5" stroke-miterlimit="3.004" stroke-linecap="round" stroke-linejoin="round"/>
</svg>
