<svg width="270" height="270" viewBox="0 0 270 270" fill="none" xmlns="http://www.w3.org/2000/svg">
<path d="M135 44.6894L135.077 98.3019" stroke="#02021E" stroke-width="2.5" stroke-linecap="round" stroke-linejoin="round"/>
<path d="M134.768 174.569L134.841 225.47" stroke="#02021E" stroke-width="2.5" stroke-linecap="round" stroke-linejoin="round"/>
<path d="M190.834 132.979C191.456 134.212 191.49 135.66 190.936 136.921C180.867 159.738 158.017 174.336 133.376 173.612C110.119 172.956 89.1511 158.748 79.5399 137.311C78.9749 136.056 79.0088 134.608 79.619 133.375C90.3038 111.927 112.385 98.335 136.241 98.697C159.322 99.059 180.376 112.357 190.829 132.979H190.834Z" stroke="#02021E" stroke-width="2.5" stroke-linecap="round" stroke-linejoin="round"/>
<path d="M135.001 158.276C147.341 158.276 157.345 148.376 157.345 136.164C157.345 123.952 147.341 114.052 135.001 114.052C122.66 114.052 112.656 123.952 112.656 136.164C112.656 148.376 122.66 158.276 135.001 158.276Z" stroke="#02021E" stroke-width="2.5" stroke-linecap="round" stroke-linejoin="round"/>
<path d="M217.396 165.565L217.396 103.964C217.396 93.7158 211.935 84.2248 203.007 79.0951L149.62 48.3001C140.737 43.176 129.768 43.176 120.84 48.3L67.4588 79.1007C58.5761 84.2248 53.0689 93.7158 53.0689 103.97L53.0689 165.565C53.0689 175.813 58.5308 185.304 67.4588 190.434L120.84 221.235C129.723 226.359 140.692 226.359 149.62 221.235L203.001 190.434C211.884 185.31 217.391 175.864 217.391 165.565L217.396 165.565Z" stroke="#02021E" stroke-width="2.5" stroke-linecap="round" stroke-linejoin="round"/>
</svg>
