<svg width="150" height="90" viewBox="0 0 150 90" fill="none" xmlns="http://www.w3.org/2000/svg">
<path d="M97.6034 56.8485C95.9454 57.2701 94.9198 56.867 93.9997 55.4853L87.4561 46.4318L86.5103 45.1783L78.8686 55.5152C77.9954 56.7588 77.0796 57.3 75.4501 56.8599L85.2355 43.724L76.1252 31.8586C77.6921 31.5538 78.7746 31.709 79.736 33.1121L86.5232 42.2782L93.3602 33.1619C94.2361 31.9184 95.1777 31.4455 96.7502 31.9042L93.2177 36.5877L88.4318 42.8195C87.8621 43.5317 87.9404 44.0188 88.4646 44.7068L97.6034 56.8485ZM52.0348 43.5046L52.8353 39.5675C55.0146 31.776 63.9454 28.5383 70.1044 33.3528C73.7038 36.1845 74.5983 40.19 74.4203 44.6769H54.1315C53.8267 52.7533 59.6396 57.6277 67.0506 55.1406C69.65 54.2675 71.1812 52.232 71.9476 49.6851C72.3364 48.4089 72.9802 48.2094 74.1796 48.5741C73.5671 51.7591 72.1854 54.4199 69.2655 56.085C64.9026 58.5777 58.6753 57.7715 55.3992 54.3073C53.4478 52.2975 52.6416 49.7507 52.2798 47.0272C52.2228 46.5771 52.1089 46.1483 52.0234 45.7167C52.031 44.9798 52.0348 44.2429 52.0348 43.506V43.5046ZM54.1685 42.9633H72.5031C72.3834 37.1232 68.747 32.9753 63.7774 32.9397C58.322 32.897 54.405 36.9466 54.1685 42.9633Z" fill="white"/>
<circle cx="74.5" cy="44.5" r="40.5" stroke="white" stroke-width="4"/>
</svg>
