<svg width="150" height="97" viewBox="0 0 150 97" fill="none" xmlns="http://www.w3.org/2000/svg">
<g filter="url(#filter0_dd_32256_76458)">
<path d="M97.5407 29.9748V19.4955C98.9255 18.8483 100.098 17.8211 100.922 16.5334C101.746 15.2458 102.187 13.7507 102.194 12.2221V11.9814C102.194 7.52468 98.5806 3.91174 94.1238 3.91174H93.8831C91.7429 3.91174 89.6903 4.76194 88.1769 6.2753C86.6635 7.78866 85.8133 9.84121 85.8133 11.9814V12.2221C85.8204 13.7507 86.2615 15.2458 87.0852 16.5334C87.9089 17.8211 89.0814 18.8483 90.4663 19.4955V29.9748C86.4862 30.5842 82.7377 32.2344 79.6005 34.7584L50.86 12.3736C51.065 11.6338 51.1719 10.8732 51.1838 10.1096C51.1874 8.31116 50.6574 6.55208 49.6611 5.05487C48.6647 3.55765 47.2467 2.38956 45.5864 1.69834C43.926 1.00712 42.098 0.82384 40.3335 1.17167C38.569 1.5195 36.9473 2.38282 35.6735 3.65242C34.3997 4.92203 33.5311 6.54088 33.1775 8.30421C32.8239 10.0675 33.0012 11.8961 33.687 13.5587C34.3728 15.2212 35.5362 16.643 37.0302 17.6443C38.5242 18.6455 40.2816 19.1812 42.08 19.1835C43.6534 19.1761 45.1974 18.7561 46.5577 17.9654L74.8585 39.9876C72.3161 43.8284 70.9897 48.3459 71.0523 52.9514C71.1148 57.5569 72.5633 62.0368 75.2091 65.8071L66.6015 74.4175C65.9057 74.195 65.1807 74.0769 64.4503 74.0669C62.974 74.0681 61.5313 74.5068 60.3043 75.3277C59.0773 76.1486 58.1212 77.3148 57.5568 78.6789C56.9924 80.043 56.845 81.5437 57.1333 82.9916C57.4216 84.4394 58.1326 85.7692 59.1765 86.8131C60.2204 87.8569 61.5503 88.5679 62.9981 88.8562C64.4459 89.1445 65.9468 88.9972 67.3109 88.4328C68.675 87.8684 69.8412 86.9123 70.6621 85.6853C71.483 84.4584 71.9217 83.0156 71.9229 81.5394C71.9133 80.8089 71.7952 80.084 71.5723 79.3883L80.0878 70.8699C82.8646 73.0077 86.094 74.4815 89.5284 75.1785C92.9629 75.8754 96.5112 75.777 99.9018 74.8908C103.292 74.0046 106.435 72.354 109.089 70.0656C111.743 67.7773 113.838 64.9117 115.214 61.6886C116.589 58.4655 117.209 54.9702 117.025 51.4707C116.841 47.9711 115.858 44.5601 114.152 41.499C112.447 38.4378 110.063 35.8077 107.183 33.8102C104.304 31.8127 101.005 30.5007 97.5407 29.9748ZM94.0109 64.4403C92.4371 64.4836 90.8707 64.2111 89.404 63.6387C87.9374 63.0664 86.6004 62.2059 85.4719 61.1081C84.3435 60.0103 83.4465 58.6974 82.8341 57.2471C82.2216 55.7968 81.906 54.2384 81.906 52.6641C81.906 51.0898 82.2216 49.5314 82.8341 48.0811C83.4465 46.6308 84.3435 45.318 85.4719 44.2201C86.6004 43.1223 87.9374 42.2618 89.404 41.6895C90.8707 41.1172 92.4371 40.8446 94.0109 40.8879C97.0611 40.9947 99.9508 42.2811 102.071 44.4761C104.192 46.6711 105.378 49.6034 105.379 52.6554C105.381 55.7074 104.198 58.6409 102.08 60.8381C99.9613 63.0352 97.0729 64.3245 94.0228 64.4344" fill="white"/>
</g>
<defs>
<filter id="filter0_dd_32256_76458" x="-4" y="0" width="158" height="98" filterUnits="userSpaceOnUse" color-interpolation-filters="sRGB">
<feFlood flood-opacity="0" result="BackgroundImageFix"/>
<feColorMatrix in="SourceAlpha" type="matrix" values="0 0 0 0 0 0 0 0 0 0 0 0 0 0 0 0 0 0 127 0" result="hardAlpha"/>
<feOffset dy="4"/>
<feGaussianBlur stdDeviation="2"/>
<feComposite in2="hardAlpha" operator="out"/>
<feColorMatrix type="matrix" values="0 0 0 0 0 0 0 0 0 0 0 0 0 0 0 0 0 0 0.25 0"/>
<feBlend mode="normal" in2="BackgroundImageFix" result="effect1_dropShadow_32256_76458"/>
<feColorMatrix in="SourceAlpha" type="matrix" values="0 0 0 0 0 0 0 0 0 0 0 0 0 0 0 0 0 0 127 0" result="hardAlpha"/>
<feOffset dy="4"/>
<feGaussianBlur stdDeviation="2"/>
<feComposite in2="hardAlpha" operator="out"/>
<feColorMatrix type="matrix" values="0 0 0 0 0 0 0 0 0 0 0 0 0 0 0 0 0 0 0.25 0"/>
<feBlend mode="normal" in2="effect1_dropShadow_32256_76458" result="effect2_dropShadow_32256_76458"/>
<feBlend mode="normal" in="SourceGraphic" in2="effect2_dropShadow_32256_76458" result="shape"/>
</filter>
</defs>
</svg>
