<svg width="150" height="90" viewBox="0 0 150 90" fill="none" xmlns="http://www.w3.org/2000/svg">
<g clip-path="url(#clip0_32256_76455)">
<path d="M107.748 5H42.2522C38.2469 5 35 8.24688 35 12.2522V77.7478C35 81.7531 38.2469 85 42.2522 85H107.748C111.753 85 115 81.7531 115 77.7478V12.2522C115 8.24688 111.753 5 107.748 5Z" fill="white"/>
<path d="M61.7359 30.1704C64.3953 30.1704 66.6231 28.086 66.6231 25.3541C66.6231 22.6241 64.3953 20.54 61.7359 20.54C59.0765 20.54 56.8493 22.6241 56.8493 25.3541C56.8493 28.0857 59.0765 30.1704 61.7359 30.1704ZM51.6028 55.9579C51.3156 57.1798 51.1715 58.4992 51.1715 59.5755C51.1715 63.8164 53.4712 66.6317 58.3584 66.6317C62.4115 66.6317 65.6975 64.2248 68.0634 60.3383L66.6187 66.1361H74.6671L79.2671 47.6864C80.4171 43.0151 82.645 40.5904 86.0231 40.5904C88.6821 40.5904 90.335 42.2442 90.335 44.9742C90.335 45.7651 90.2631 46.6267 89.9756 47.5614L87.6037 56.0417C87.2443 57.2636 87.1012 58.4861 87.1012 59.6351C87.1012 63.6611 89.4721 66.6058 94.4312 66.6058C98.6715 66.6058 102.049 63.8761 103.918 57.3358L100.756 56.1151C99.1746 60.4967 97.809 61.2889 96.7309 61.2889C95.6528 61.2889 95.0778 60.5708 95.0778 59.1342C95.0778 58.4873 95.2221 57.7695 95.4371 56.9051L97.7374 48.6432C98.3121 46.7032 98.5281 44.9829 98.5281 43.4023C98.5281 37.2216 94.7906 33.996 90.2631 33.996C86.0231 33.996 81.7106 37.8207 79.555 41.846L81.1356 34.621H68.8468L67.1218 40.9848H72.8715L69.3309 55.1598C66.5506 61.3405 61.4434 61.4408 60.8025 61.2973C59.75 61.0598 59.0768 60.6601 59.0768 59.2926C59.0768 58.5036 59.2206 57.3701 59.58 56.0036L64.9706 34.621H51.3156L49.5906 40.9848H55.2678L51.6031 55.9579" fill="#02021E"/>
</g>
<defs>
<clipPath id="clip0_32256_76455">
<rect width="80" height="80" fill="white" transform="translate(35 5)"/>
</clipPath>
</defs>
</svg>
