<svg width="270" height="270" viewBox="0 0 270 270" fill="none" xmlns="http://www.w3.org/2000/svg">
<path d="M73.1326 73.5991C38.9636 107.768 38.9636 163.211 73.1326 197.38C107.302 231.549 162.745 231.549 196.914 197.38L73.1326 73.5991Z" stroke="#02021E" stroke-width="2.5" stroke-miterlimit="3.004" stroke-linecap="round" stroke-linejoin="round"/>
<path d="M183.739 168.705C199.334 145.802 197.006 114.333 176.71 94.036C156.413 73.7394 124.944 71.3653 102.041 87.0067" stroke="#02021E" stroke-width="2.5" stroke-miterlimit="3.004" stroke-linecap="round" stroke-linejoin="round"/>
<path d="M204.594 189.511C231.408 155.016 228.988 105.159 197.286 73.4578C165.584 41.7561 115.727 39.3354 81.2324 66.1492" stroke="#02021E" stroke-width="2.5" stroke-miterlimit="3.004" stroke-linecap="round" stroke-linejoin="round"/>
<path d="M117.682 118.195L152.549 153.062C162.185 143.426 162.185 127.831 152.549 118.195C142.913 108.559 127.318 108.559 117.682 118.195Z" stroke="#02021E" stroke-width="2.5" stroke-miterlimit="3.004" stroke-linecap="round" stroke-linejoin="round"/>
</svg>
