<svg width="270" height="270" viewBox="0 0 270 270" fill="none" xmlns="http://www.w3.org/2000/svg">
<g clip-path="url(#clip0_33115_103745)">
<path d="M136.396 220.793C184.731 220.793 223.913 181.61 223.913 133.276C223.913 84.9416 184.731 45.7588 136.396 45.7588C88.0617 45.7588 48.8789 84.9416 48.8789 133.276C48.8789 181.61 88.0617 220.793 136.396 220.793Z" stroke="#02021E" stroke-width="2.5" stroke-miterlimit="3.004" stroke-linecap="round" stroke-linejoin="round"/>
<path d="M78.5801 198.964C90.218 178.62 112.144 164.888 137.282 164.888C162.001 164.888 183.601 178.155 195.378 197.939" stroke="#02021E" stroke-width="2.5" stroke-miterlimit="3.004" stroke-linecap="round" stroke-linejoin="round"/>
<path d="M136.769 149.245C153.943 149.245 167.865 135.322 167.865 118.148C167.865 100.974 153.943 87.0518 136.769 87.0518C119.594 87.0518 105.672 100.974 105.672 118.148C105.672 135.322 119.594 149.245 136.769 149.245Z" stroke="#02021E" stroke-width="2.5" stroke-miterlimit="3.004" stroke-linecap="round" stroke-linejoin="round"/>
<path d="M123.361 130.81C125.577 135.732 130.686 139.189 136.629 139.189C142.571 139.189 147.68 135.745 149.896 130.81" stroke="#02021E" stroke-width="2.5" stroke-miterlimit="3.004" stroke-linecap="round" stroke-linejoin="round"/>
</g>
<defs>
<clipPath id="clip0_33115_103745">
<rect width="270" height="270" fill="white"/>
</clipPath>
</defs>
</svg>
