<svg width="150" height="90" viewBox="0 0 150 90" fill="none" xmlns="http://www.w3.org/2000/svg">
<rect x="35" y="5" width="80" height="80" rx="6.66667" fill="white"/>
<path fill-rule="evenodd" clip-rule="evenodd" d="M48.4816 56.7078C44.7283 52.9863 44.7283 46.9526 48.4817 43.231L58.6761 33.1232C61.8491 29.9772 66.6886 29.4907 70.377 31.6636C71.5179 32.3357 71.5079 33.8774 70.5695 34.8078C69.6312 35.7382 68.0994 35.6581 66.8258 35.2888C65.1948 34.8158 63.3606 35.217 62.0743 36.4924L51.8798 46.6002C50.0031 48.461 50.0031 51.4778 51.8798 53.3387C53.7565 55.1995 56.7993 55.1995 58.676 53.3387L79.0646 33.1233C82.8182 29.4018 88.9035 29.4018 92.6571 33.1233L102.852 43.231C106.605 46.9524 106.605 52.9863 102.852 56.7078C99.0982 60.4294 93.0127 60.4294 89.2591 56.7078L85.8611 53.3387L81.6134 57.5502C78.4404 60.6962 73.601 61.1827 69.9125 59.0098C68.7716 58.3377 68.7816 56.796 69.72 55.8656C70.6583 54.9352 72.19 55.0152 73.4638 55.3845C75.0948 55.8576 76.929 55.4563 78.2153 54.1809L82.5843 49.8491C84.394 48.0548 87.3281 48.0548 89.1379 49.8491L92.6573 53.3387C94.534 55.1994 97.5767 55.1994 99.4534 53.3387C101.33 51.4778 101.33 48.461 99.4534 46.6002L89.2589 36.4925C87.3822 34.6318 84.3395 34.6318 82.4628 36.4926L62.0742 56.708C58.3206 60.4295 52.235 60.4295 48.4816 56.7078Z" fill="#02021E"/>
</svg>
