<svg width="270" height="270" viewBox="0 0 270 270" fill="none" xmlns="http://www.w3.org/2000/svg">
<path d="M133.837 162.233C134.395 162.791 135.233 163.024 135.978 163.024C136.769 163.024 137.514 162.791 138.119 162.233L166.004 134.302C168.704 131.602 170.473 127.924 170.473 123.828C170.473 119.172 168.332 114.936 164.84 112.19C158.788 107.115 149.804 108.326 144.171 113.726L135.978 122.059L127.226 113.167C124.526 110.467 120.802 108.698 116.473 108.698C111.771 108.698 107.721 111.026 104.975 114.331C99.9005 120.336 101.111 129.46 106.511 134.907L133.837 162.233Z" stroke="#02021E" stroke-width="2.5" stroke-miterlimit="3.004" stroke-linecap="round" stroke-linejoin="round"/>
<path d="M214.091 132.393C200.87 165.398 168.517 186.719 133.556 185.695C100.505 184.764 70.8046 164.002 58.1426 132.952C72.3409 101.855 103.624 81.9776 137.513 82.4896C170.332 83.0017 200.172 102.46 214.091 132.393Z" stroke="#02021E" stroke-width="2.5" stroke-miterlimit="3.004" stroke-linecap="round" stroke-linejoin="round"/>
<path d="M46.5996 71.9693V60.0986C46.5996 52.5572 52.7445 46.5055 60.2393 46.552C64.6151 46.5986 68.991 46.5986 73.4134 46.6452" stroke="#02021E" stroke-width="2.5" stroke-miterlimit="3.004" stroke-linecap="round" stroke-linejoin="round"/>
<path d="M223.449 196.263V208.133C223.449 215.675 217.304 221.727 209.809 221.68C205.433 221.633 201.057 221.633 196.635 221.587" stroke="#02021E" stroke-width="2.5" stroke-miterlimit="3.004" stroke-linecap="round" stroke-linejoin="round"/>
<path d="M223.449 73.7368V61.8661C223.449 54.3248 217.304 48.2731 209.809 48.3196C205.433 48.3662 201.057 48.3661 196.635 48.4127" stroke="#02021E" stroke-width="2.5" stroke-miterlimit="3.004" stroke-linecap="round" stroke-linejoin="round"/>
<path d="M46.5996 197.983V209.854C46.5996 217.395 52.7445 223.447 60.2393 223.4C64.6151 223.354 68.991 223.354 73.4134 223.307" stroke="#02021E" stroke-width="2.5" stroke-miterlimit="3.004" stroke-linecap="round" stroke-linejoin="round"/>
</svg>
