<svg width="150" height="90" viewBox="0 0 150 90" fill="none" xmlns="http://www.w3.org/2000/svg">
<path fill-rule="evenodd" clip-rule="evenodd" d="M81.6369 3.91113C81.0449 3.91113 80.4951 4.04008 79.9877 4.212C81.066 4.94267 81.658 5.90974 81.954 7.00574C81.9752 7.15617 82.0175 7.26362 82.0386 7.41405C82.0598 7.54299 82.0809 7.67194 82.0809 7.80088C82.1655 9.69202 81.5946 9.92842 81.1929 11.0459C80.5797 12.4858 80.7488 14.0331 81.4889 15.2795C81.5523 15.4299 81.6369 15.6019 81.7426 15.7523C80.9391 10.3152 85.4005 9.49861 86.2251 7.80088C86.2885 6.31805 85.0833 5.32949 84.1318 4.6418C83.2227 4.08306 82.3981 3.91113 81.6369 3.91113ZM88.3606 5.13608C88.276 5.63036 88.3394 5.50141 88.3183 5.7593C88.2972 5.93122 88.2972 6.14613 88.2761 6.31805C88.2338 6.48997 88.1915 6.66189 88.1281 6.83382C88.0858 7.00574 88.0223 7.17766 87.9589 7.34958C87.8743 7.52151 87.8109 7.67194 87.7263 7.84386C87.6629 7.92986 87.6206 8.01578 87.5572 8.10175C87.5149 8.16622 87.4726 8.23069 87.4303 8.29516C87.3246 8.4456 87.2189 8.59602 87.1132 8.72496C86.9863 8.85391 86.8806 9.00433 86.7326 9.11179C86.7326 9.13331 86.7326 9.13331 86.7326 9.13331C86.6057 9.24076 86.4788 9.3697 86.3308 9.47715C85.8868 9.82099 85.3794 10.0789 84.9142 10.4012C84.7662 10.5087 84.6182 10.5947 84.4913 10.7236C84.3433 10.831 84.2165 10.9385 84.0896 11.0674C83.9416 11.1964 83.8359 11.3253 83.709 11.4758C83.6033 11.6047 83.4764 11.7551 83.3919 11.9056C83.2862 12.056 83.1804 12.2064 83.0959 12.3569C83.0113 12.5288 82.9479 12.6792 82.8633 12.8511C82.7999 13.023 82.7364 13.1735 82.6941 13.3454C82.6307 13.5388 82.5884 13.7107 82.5461 13.8827C82.525 13.9687 82.525 14.0761 82.5039 14.162C82.4827 14.248 82.4827 14.334 82.4616 14.4199C82.4616 14.5918 82.4404 14.7853 82.4404 14.9572C82.4404 15.0861 82.4404 15.2151 82.4616 15.344C82.4616 15.5159 82.4828 15.6878 82.525 15.8813C82.5462 16.0532 82.5885 16.2251 82.6308 16.397C82.6942 16.569 82.7365 16.7409 82.7999 16.9128C82.8422 17.0203 82.9056 17.1277 82.9479 17.2137L78.0849 15.301C77.2603 15.0646 76.4568 14.8497 75.6322 14.6563C75.1882 14.5489 74.7442 14.4414 74.3002 14.334C73.0315 14.0761 71.7418 13.8827 70.452 13.7537C70.4098 13.7537 70.3886 13.7322 70.3463 13.7322C69.0777 13.6033 67.8302 13.5388 66.5616 13.5388C65.6312 13.5388 64.7009 13.5817 63.7917 13.6462C62.502 13.7322 61.2122 13.9041 59.9225 14.119C59.6053 14.162 59.2881 14.2265 58.971 14.291C58.3155 14.4199 57.6812 14.5703 57.0681 14.7208C56.7509 14.8068 56.4337 14.8927 56.1166 14.9786C55.7994 15.1076 55.5034 15.258 55.2074 15.387C54.9748 15.4944 54.7422 15.6019 54.5097 15.7093C54.4674 15.7308 54.4251 15.7308 54.4039 15.7523C54.1925 15.8597 54.0022 15.9457 53.8119 16.0531C53.7485 16.0747 53.7062 16.0961 53.6639 16.1176C53.4313 16.2251 53.1988 16.354 53.0085 16.4614C52.8605 16.5259 52.7125 16.6119 52.5856 16.6764C52.5222 16.7193 52.4376 16.7623 52.3953 16.7838C52.205 16.8912 52.0147 16.9987 51.8456 17.1062C51.6553 17.2136 51.4861 17.3211 51.3381 17.4285C51.1901 17.536 51.0421 17.6219 50.9152 17.7294C50.8941 17.7509 50.873 17.7509 50.8518 17.7723C50.7249 17.8583 50.5769 17.9657 50.4501 18.0732C50.4501 18.0732 50.4289 18.0947 50.4078 18.1161C50.3021 18.2021 50.1964 18.2881 50.0907 18.374C50.0484 18.3955 50.0061 18.4385 49.9638 18.46C49.8581 18.546 49.7524 18.6534 49.6467 18.7394C49.6255 18.7823 49.5832 18.8039 49.562 18.8254C49.4352 18.9543 49.3083 19.0618 49.1815 19.1907C49.1603 19.1907 49.1603 19.2122 49.1392 19.2337C49.0123 19.3411 48.8855 19.4701 48.7586 19.599C48.7374 19.6205 48.7374 19.6419 48.7164 19.6419C48.6106 19.7494 48.5049 19.8569 48.3992 19.9858C48.3569 20.0287 48.2935 20.0718 48.2512 20.1147C48.1455 20.2437 48.0186 20.3726 47.8918 20.5016C47.8706 20.5445 47.8283 20.566 47.8072 20.609C47.638 20.7809 47.49 20.9529 47.3208 21.1248C47.2997 21.1463 47.2786 21.1677 47.2574 21.1892C46.9191 21.5546 46.5597 21.9199 46.1791 22.2423C45.7985 22.5861 45.3968 22.9085 44.995 23.1878C44.5722 23.4887 44.1704 23.7466 43.7264 24.0045C43.3035 24.2409 42.8595 24.4558 42.3944 24.6492C41.9503 24.8426 41.4852 25.0145 41.02 25.1649C40.132 25.3584 39.2228 25.7237 38.4405 25.7882C38.2713 25.7882 38.0811 25.8311 37.9119 25.8526C37.7216 25.8956 37.5525 25.9386 37.3833 25.9816C37.2142 26.046 37.045 26.1105 36.8759 26.175C36.7067 26.2395 36.5376 26.3254 36.3684 26.4114C36.2204 26.5188 36.0513 26.6048 35.9033 26.7122C35.7553 26.8197 35.6072 26.9486 35.4804 27.0776C35.3324 27.185 35.1844 27.3355 35.0575 27.4644C34.9306 27.6149 34.8038 27.7438 34.6981 27.8942C34.5923 28.0661 34.4655 28.2166 34.3809 28.3885C34.2752 28.5389 34.1695 28.7108 34.0849 28.8828C34.0003 29.0762 33.9157 29.2481 33.8523 29.4415C33.7889 29.6134 33.7255 29.8069 33.662 30.0003C33.6198 30.1722 33.5774 30.3441 33.5563 30.516C33.5563 30.5376 33.5351 30.559 33.5351 30.5805C33.4929 30.7739 33.4929 31.0318 33.4717 31.1608C33.4505 31.3112 33.4294 31.4401 33.4294 31.5906C33.4294 31.6766 33.4294 31.784 33.4506 31.8699C33.4718 32.0204 33.4929 32.1493 33.5352 32.2783C33.5775 32.4072 33.6198 32.5361 33.6832 32.6651C33.6832 32.6866 33.6832 32.6866 33.6832 32.6866C33.7467 32.8155 33.8312 32.9445 33.9158 33.0734C34.0004 33.2024 34.085 33.3313 34.1907 33.4603C34.2964 33.5677 34.4233 33.6966 34.5501 33.8041C34.677 33.933 34.8038 34.0405 34.9518 34.1479C35.4593 34.5992 35.5862 34.7497 36.2416 35.0935C36.3473 35.158 36.4531 35.201 36.5799 35.2654C36.6011 35.2654 36.6222 35.2869 36.6434 35.2869C36.6434 35.3299 36.6434 35.3514 36.6645 35.3944C36.6857 35.5663 36.728 35.7382 36.7702 35.9102C36.8125 36.1036 36.876 36.2755 36.9394 36.4259C37.0028 36.5549 37.0451 36.6838 37.1086 36.8128C37.1297 36.8557 37.1508 36.8988 37.172 36.9202C37.2566 37.0921 37.3411 37.2426 37.4257 37.393C37.5314 37.5434 37.6371 37.6939 37.7429 37.8443C37.8486 37.9732 37.9754 38.1237 38.1023 38.2526C38.2292 38.3816 38.356 38.489 38.504 38.6179C38.504 38.6179 38.5252 38.6395 38.5463 38.6395C38.6732 38.747 38.8 38.8544 38.9269 38.9404C39.0749 39.0478 39.2229 39.1338 39.392 39.2197C39.54 39.3057 39.7092 39.3917 39.8783 39.4561C40.0052 39.5206 40.1532 39.5636 40.3012 39.6066C40.3224 39.6281 40.3435 39.6281 40.3858 39.6495C40.4704 39.6711 40.5761 39.6925 40.6607 39.714C40.5973 40.8745 40.5761 41.9705 40.7453 42.3573C40.9356 42.7871 41.8659 41.4762 42.7962 39.9719C42.6694 41.4547 42.5848 43.1954 42.7962 43.7112C43.0288 44.2484 44.2974 42.5722 45.3969 40.724C60.3878 37.1996 74.0677 47.7299 75.5055 62.6012C75.2306 60.2802 72.4185 58.9908 71.1288 59.3131C70.4945 60.9034 69.4161 62.945 67.6824 64.2129C67.8304 62.7946 67.767 61.3332 67.4709 59.9149C67.0058 61.892 66.0966 63.7402 64.8491 65.3304C62.8404 65.4809 60.8318 64.4923 59.7746 63.0095C59.69 62.945 59.6689 62.8161 59.6055 62.7301C59.542 62.5797 59.4786 62.4292 59.4363 62.2788C59.3729 62.1284 59.3306 61.9779 59.3094 61.8275C59.2883 61.6771 59.2883 61.5266 59.2883 61.3547C59.2883 61.2473 59.2883 61.1398 59.2883 61.0324C59.3094 60.8819 59.3517 60.7315 59.394 60.5811C59.4362 60.4306 59.4786 60.2802 59.542 60.1298C59.6266 59.9793 59.69 59.8289 59.7957 59.6785C60.1552 58.6469 60.1552 57.8088 59.4997 57.3145C59.3728 57.2285 59.246 57.1641 59.098 57.0996C59.0134 57.0781 58.9077 57.0352 58.8231 57.0136C58.7597 56.9921 58.7174 56.9707 58.654 56.9492C58.5059 56.9062 58.3579 56.8632 58.2099 56.8417C58.0619 56.7988 57.9139 56.7773 57.7659 56.7773C57.6179 56.7557 57.4488 56.7343 57.3008 56.7343C57.195 56.7343 57.0893 56.7558 56.9836 56.7558C56.8145 56.7558 56.6664 56.7774 56.5184 56.8203C56.3704 56.8418 56.2224 56.8632 56.0744 56.9063C55.9264 56.9492 55.7784 56.9923 55.6304 57.0567C55.4824 57.1212 55.3555 57.1857 55.2075 57.2501C55.0807 57.3146 54.9538 57.4006 54.8058 57.465C49.8793 60.7316 52.8183 68.3821 56.1801 70.5956C54.9115 70.832 53.6218 71.1114 53.2623 71.3907C53.2411 71.4123 53.2201 71.4337 53.2201 71.4337C54.1292 71.9924 55.0807 72.4652 56.0745 72.8735C57.4277 73.3248 58.8654 73.7332 59.4997 73.9051V73.9266C61.2547 74.2919 63.0307 74.4209 64.8279 74.3134C74.1946 73.6472 81.8698 66.405 83.2652 56.8633C83.3075 57.0567 83.3499 57.2286 83.3921 57.4221C83.4555 57.8089 83.5401 58.2172 83.5824 58.6255C83.5824 58.6255 83.5824 58.6255 83.5824 58.647C83.6246 58.8405 83.6458 59.0339 83.667 59.2058C83.667 59.2487 83.667 59.2703 83.667 59.2918C83.6882 59.4852 83.7093 59.6786 83.7093 59.8505C83.7304 60.0869 83.7515 60.3233 83.7515 60.5597C83.7515 60.6672 83.7515 60.7746 83.7515 60.9036C83.7515 61.011 83.7727 61.14 83.7727 61.2474C83.7727 61.3764 83.7515 61.5053 83.7515 61.6342C83.7515 61.7417 83.7515 61.8491 83.7515 61.9351C83.7515 62.0855 83.7303 62.2145 83.7303 62.3649C83.7303 62.4509 83.7303 62.5368 83.7091 62.6443C83.7091 62.7947 83.688 62.9451 83.688 63.1171C83.6668 63.1815 83.6668 63.246 83.6668 63.3105C83.6456 63.4824 83.6245 63.6328 83.6033 63.8048C83.6033 63.8692 83.6033 63.9337 83.5822 63.9982C83.561 64.2131 83.5187 64.4065 83.4976 64.6214V64.6429V64.6645C83.4553 64.8579 83.413 65.0728 83.3707 65.2662C83.3707 65.2877 83.3707 65.3091 83.3707 65.3307C83.3284 65.5241 83.2861 65.7175 83.2438 65.9109C83.2438 65.9324 83.2227 65.9754 83.2227 65.9969C83.1804 66.1903 83.1381 66.3837 83.0747 66.5771C83.0747 66.5986 83.0747 66.6201 83.0747 66.6416C83.0112 66.8565 82.9478 67.0499 82.9055 67.2433C82.8843 67.2648 82.8843 67.2863 82.8843 67.2863C82.8209 67.5012 82.7575 67.7161 82.6941 67.931C82.6094 68.1459 82.5461 68.3393 82.4615 68.5542C82.3769 68.7691 82.3135 68.984 82.2289 69.1774C82.1443 69.3923 82.0597 69.5857 81.9752 69.8006H81.954C81.8694 69.994 81.7848 70.209 81.6791 70.4024C81.6579 70.4668 81.6368 70.5098 81.6157 70.5528C81.5945 70.5743 81.5945 70.5957 81.5734 70.6173C80.1991 73.4325 78.1693 75.9039 75.632 77.838C75.4629 77.9455 75.2937 78.0744 75.1246 78.2033C75.0823 78.2463 75.0189 78.2678 74.9766 78.3108C74.8286 78.4182 74.6806 78.5257 74.5114 78.6332L74.5749 78.7621H74.596C74.892 78.7192 75.188 78.6761 75.4841 78.6332H75.5052C76.055 78.5472 76.6047 78.4397 77.1544 78.3323C77.3024 78.3107 77.4716 78.2678 77.6196 78.2248C77.7253 78.2033 77.8099 78.1819 77.9156 78.1604C78.0636 78.1388 78.2116 78.0959 78.3596 78.0744C78.4865 78.0314 78.6134 78.0099 78.7402 77.9669C80.8546 77.4511 82.9055 76.742 84.8719 75.9038C81.51 80.5672 77.0064 84.328 71.7416 86.7994C74.1732 86.6275 76.6047 86.2192 78.9516 85.5315C87.4726 82.9741 94.6403 77.1503 98.9324 69.3063C98.0655 74.2706 96.1203 78.9984 93.2448 83.1246C95.2957 81.7492 97.1775 80.1589 98.8901 78.3537C103.626 73.325 106.734 66.9424 107.792 60.087C108.511 63.4824 108.722 66.9854 108.405 70.4453C123.671 48.8046 109.673 26.3687 103.817 20.4589C103.795 20.4159 103.774 20.3944 103.774 20.3514C103.753 20.3729 103.753 20.3729 103.753 20.3944C103.753 20.3728 103.753 20.3728 103.732 20.3514C103.732 20.6093 103.711 20.8672 103.69 21.1251C103.626 21.6193 103.563 22.0921 103.478 22.5649C103.373 23.0377 103.246 23.5105 103.119 23.9833C102.971 24.4346 102.802 24.9073 102.611 25.3586C102.421 25.7884 102.21 26.2397 101.977 26.6696C101.745 27.0779 101.491 27.5077 101.216 27.8945C100.941 28.3028 100.645 28.6896 100.349 29.055C100.032 29.4418 99.6936 29.7856 99.3553 30.1295C99.1438 30.3229 98.9536 30.4948 98.7421 30.6667C98.573 30.8172 98.425 30.9461 98.2558 31.0965C97.8752 31.3974 97.4946 31.6768 97.0718 31.9347C96.67 32.1926 96.2472 32.4504 95.8243 32.6653C95.3803 32.8803 94.9363 33.0737 94.4922 33.2671C94.0482 33.439 93.5831 33.5894 93.1179 33.7184C92.6527 33.8473 92.1664 33.9548 91.7013 34.0407C91.215 34.1267 90.7287 34.1697 90.2635 34.2127C89.9252 34.2342 89.5869 34.2556 89.2486 34.2556C88.7623 34.2556 88.276 34.2127 87.8108 34.1696C87.3245 34.1267 86.8382 34.0621 86.3731 33.9547C85.8868 33.8687 85.4216 33.7398 84.9564 33.5894H84.9353C85.4004 33.5464 85.8656 33.5034 86.3308 33.4174C86.817 33.3314 87.2822 33.224 87.7474 33.0951C88.2125 32.9661 88.6777 32.8157 89.1217 32.6438C89.5869 32.4719 90.0309 32.257 90.4538 32.0421C90.8978 31.8271 91.2995 31.5908 91.7224 31.3329C92.1241 31.0535 92.5258 30.7741 92.9064 30.4733C93.287 30.1724 93.6465 29.8501 93.9848 29.5062C94.3442 29.1838 94.6614 28.8185 94.9785 28.4532C95.2957 28.0664 95.5917 27.6795 95.8666 27.2927C95.9088 27.2282 95.9512 27.1423 95.9934 27.0778C96.2048 26.734 96.4163 26.3901 96.6066 26.0463C96.8392 25.6165 97.0506 25.1866 97.2409 24.7354C97.4312 24.2841 97.6003 23.8328 97.7483 23.36C97.8963 22.9087 98.0021 22.4359 98.1078 21.9631C98.1924 21.4688 98.2769 20.996 98.3192 20.5233C98.3615 20.029 98.4038 19.5347 98.4038 19.0619C98.4038 18.7181 98.3826 18.3742 98.3616 18.0304C98.3193 17.5361 98.2559 17.0633 98.1924 16.5905C98.1078 16.0963 98.0021 15.6235 97.8753 15.1507C97.7273 14.6994 97.5793 14.2266 97.4101 13.7753C97.2409 13.324 97.0295 12.8727 96.8181 12.4429C96.5855 12.0131 96.3529 11.5833 96.0992 11.175C95.8243 10.7667 95.5495 10.3798 95.2534 9.99301C94.9363 9.62767 94.6191 9.26234 94.2808 8.897C94.1117 8.72508 93.9214 8.53167 93.7311 8.35975C92.7796 7.60759 91.7859 6.8984 90.7921 6.2537C90.6441 6.1677 90.5173 6.10326 90.3693 6.03879C89.6715 5.5875 89.016 5.35098 88.3606 5.13608Z" fill="white"/>
</svg>
