<svg width="150" height="90" viewBox="0 0 150 90" fill="none" xmlns="http://www.w3.org/2000/svg">
<g clip-path="url(#clip0_32256_75028)">
<path d="M35.9285 23.9686H63.8238V26.1736H38.486V42.7816H62.3133V44.9866H38.486V63.2206H64.1148V65.4271H35.93V23.9686H35.9285ZM66.3228 23.9686H69.2868L82.4221 42.2011L95.847 23.9671L114.106 0.808594L84.1066 44.1181L99.5655 65.4286H96.486L82.4221 46.0336L68.2998 65.4286H65.2773L80.8532 44.1181L66.3228 23.9686ZM100.67 26.1736V23.9686H132.459V26.1736H117.814V65.4286H115.257V26.1736H100.67ZM1.03125 23.9641H4.22623L48.3034 89.6041L30.089 65.4241L3.70423 27.0991L3.58723 65.4241H1.03125V23.9641ZM132.208 62.5546C132.738 62.5546 133.123 62.1526 133.123 61.6321C133.127 61.5106 133.106 61.3896 133.061 61.2765C133.016 61.1634 132.949 61.0606 132.864 60.9742C132.778 60.8878 132.676 60.8197 132.563 60.774C132.451 60.7282 132.33 60.7058 132.208 60.7081C132.087 60.7064 131.967 60.7293 131.854 60.7753C131.742 60.8213 131.64 60.8894 131.555 60.9757C131.47 61.062 131.403 61.1646 131.358 61.2774C131.313 61.3902 131.292 61.5108 131.295 61.6321C131.295 62.1526 131.685 62.5546 132.208 62.5546ZM134.722 60.1246C134.722 61.6621 135.835 62.6671 137.458 62.6671C139.188 62.6671 140.233 61.6321 140.233 59.8336V53.5066H138.838V59.8276C138.838 60.8266 138.336 61.3576 137.446 61.3576C136.651 61.3576 136.108 60.8626 136.09 60.1261L134.722 60.1246ZM142.054 60.0451C142.155 61.6441 143.491 62.6671 145.482 62.6671C147.609 62.6671 148.939 61.5946 148.939 59.8846C148.939 58.5391 148.182 57.7951 146.34 57.3676L145.351 57.1261C144.181 56.8531 143.709 56.4871 143.709 55.8496C143.709 55.0441 144.444 54.5161 145.545 54.5161C146.589 54.5161 147.31 55.0306 147.441 55.8556H148.797C148.716 54.3496 147.385 53.2906 145.563 53.2906C143.604 53.2906 142.297 54.3496 142.297 55.9426C142.297 57.2566 143.037 58.0366 144.661 58.4146L145.816 58.6936C147.006 58.9726 147.528 59.3821 147.528 60.0631C147.528 60.8581 146.707 61.4326 145.588 61.4326C144.388 61.4326 143.554 60.8941 143.436 60.0451H142.054Z" fill="white"/>
</g>
<defs>
<clipPath id="clip0_32256_75028">
<rect width="150" height="90" fill="white"/>
</clipPath>
</defs>
</svg>
