<svg width="150" height="90" viewBox="0 0 150 90" fill="none" xmlns="http://www.w3.org/2000/svg">
<path d="M71.6423 6.07C73.6423 4.9375 76.1923 4.9325 78.1423 6.07L108.002 22.9025C109.87 23.9525 111.12 26.035 111.102 28.1875V61.9375C111.115 64.18 109.742 66.3075 107.772 67.3375L78.0723 84.0925C77.0564 84.6539 75.9088 84.933 74.7486 84.9009C73.5885 84.8688 72.458 84.5267 71.4748 83.91L62.5623 78.76C61.9548 78.3975 61.2723 78.11 60.8423 77.5225C61.2223 77.0125 61.8973 76.9475 62.4473 76.7225C63.6873 76.3275 64.8223 75.7225 65.9623 75.0825C66.2498 74.8825 66.6023 74.9575 66.8773 75.1375L74.4773 79.5325C75.0198 79.845 75.5698 79.4325 76.0348 79.17L105.197 62.7125C105.557 62.5375 105.757 62.1575 105.727 61.7625V28.3375C105.767 27.8875 105.51 27.4775 105.102 27.295L75.4773 10.6125C75.3065 10.4944 75.104 10.431 74.8964 10.4305C74.6888 10.4301 74.486 10.4927 74.3148 10.61L44.7323 27.3275C44.3323 27.51 44.0573 27.915 44.1073 28.365V61.79C44.0723 62.185 44.2823 62.5575 44.6448 62.7275L52.5498 67.19C54.0348 67.99 55.8573 68.44 57.4923 67.8525C58.2078 67.5829 58.8237 67.1009 59.2576 66.4714C59.6915 65.8418 59.9225 65.0946 59.9198 64.33L59.9273 31.105C59.8923 30.6125 60.3573 30.205 60.8348 30.255H64.6348C65.1348 30.2425 65.5273 30.7725 65.4598 31.2675L65.4523 64.7025C65.4548 67.6725 64.2348 70.9025 61.4873 72.36C58.1023 74.11 53.9173 73.7425 50.5723 72.06L42.0723 67.36C40.0723 66.36 38.7298 64.2 38.7423 61.96V28.21C38.7506 27.1131 39.0521 26.0383 39.6157 25.0972C40.1792 24.156 40.9842 23.3828 41.9473 22.8575L71.6423 6.07ZM80.2523 29.465C84.5698 29.215 89.1923 29.3 93.0773 31.4275C96.0848 33.0575 97.7523 36.4775 97.8073 39.8225C97.7223 40.2725 97.2523 40.5225 96.8223 40.49C95.5723 40.4875 94.3173 40.5075 93.0623 40.4825C92.5298 40.5025 92.2223 40.0125 92.1548 39.5425C91.7948 37.9425 90.9223 36.36 89.4173 35.5875C87.1073 34.43 84.4273 34.4875 81.9073 34.5125C80.0673 34.6125 78.0898 34.77 76.5323 35.85C75.3323 36.67 74.9723 38.35 75.3998 39.655C75.7998 40.6125 76.9073 40.92 77.8098 41.205C83.0148 42.565 88.5273 42.455 93.6348 44.2225C95.7473 44.9525 97.8148 46.3725 98.5398 48.585C99.4848 51.55 99.0723 55.095 96.9648 57.475C95.2548 59.435 92.7648 60.475 90.2773 61.08C86.9698 61.8175 83.5398 61.835 80.1823 61.505C77.0248 61.145 73.7398 60.315 71.3023 58.165C69.2173 56.355 68.2023 53.535 68.3023 50.815C68.3273 50.355 68.7848 50.035 69.2273 50.0725H72.9773C73.4823 50.0375 73.8523 50.4725 73.8773 50.9475C74.1098 52.4475 74.6823 54.0725 76.0123 54.9475C78.5773 56.6025 81.7948 56.4875 84.7298 56.535C87.1623 56.4275 89.8923 56.395 91.8798 54.785C92.9298 53.8675 93.2373 52.335 92.9548 51.015C92.6473 49.9 91.4548 49.3825 90.4548 49.015C85.3173 47.39 79.7423 47.98 74.6548 46.14C72.5898 45.41 70.5923 44.03 69.7998 41.9075C68.6923 38.9075 69.1998 35.19 71.5323 32.89C73.7823 30.6025 77.0823 29.72 80.2073 29.405L80.2523 29.465Z" fill="white"/>
</svg>
