<svg width="150" height="90" viewBox="0 0 150 90" fill="none" xmlns="http://www.w3.org/2000/svg">
<g clip-path="url(#clip0_32256_75040)">
<path fill-rule="evenodd" clip-rule="evenodd" d="M113.44 46.1407L107.543 40.255C107.311 40.0243 107.127 39.75 107.002 39.448C106.876 39.146 106.811 38.8221 106.811 38.495V31.2922C106.811 24.635 106.12 22.2207 104.814 19.7893C103.538 17.3825 101.566 15.4154 99.1571 14.1436C96.72 12.8436 94.3 12.1493 87.6343 12.1493H78.0943C77.9966 12.1479 77.9014 12.118 77.8206 12.0631C77.7397 12.0083 77.6767 11.9309 77.6393 11.8407C77.6019 11.7504 77.5918 11.6512 77.6102 11.5552C77.6286 11.4592 77.6747 11.3708 77.7429 11.3007L83.6371 5.41502C84.1074 4.94611 84.7445 4.68304 85.4086 4.68359H88.7229C97.6143 4.68359 100.837 5.60645 104.089 7.34074C107.301 9.03672 109.929 11.6599 111.631 14.8693C113.369 18.1122 114.294 21.3322 114.294 30.2065V45.7893C114.295 45.8888 114.265 45.986 114.21 46.0687C114.155 46.1514 114.076 46.2157 113.984 46.2534C113.892 46.2912 113.791 46.3006 113.693 46.2805C113.596 46.2604 113.51 46.2118 113.44 46.1407ZM72.7543 83.475L78.6514 77.5893C78.8842 77.357 79.1604 77.1728 79.4644 77.0473C79.7683 76.9218 80.094 76.8574 80.4229 76.8579H87.6343C94.3029 76.8579 96.72 76.1636 99.16 74.8636C101.568 73.5912 103.538 71.6241 104.814 69.2179C106.117 66.7864 106.814 64.3722 106.814 57.715V48.195C106.814 48.0961 106.843 47.9993 106.897 47.917C106.952 47.8347 107.03 47.7705 107.122 47.7328C107.213 47.6951 107.314 47.6855 107.411 47.7052C107.508 47.7249 107.596 47.7731 107.666 47.8436L113.563 53.7293C113.794 53.9604 113.977 54.2347 114.102 54.5367C114.227 54.8388 114.292 55.1624 114.291 55.4893V58.8007C114.291 67.675 113.369 70.895 111.629 74.1379C109.926 77.3461 107.298 79.9682 104.086 81.6636C100.837 83.4007 97.6114 84.3236 88.72 84.3236H73.1086C73.01 84.3241 72.9136 84.2953 72.8314 84.2409C72.7493 84.1865 72.6851 84.1089 72.6472 84.018C72.6092 83.9271 72.5991 83.8269 72.6182 83.7302C72.6373 83.6335 72.6846 83.5447 72.7543 83.475ZM41.2514 48.7522L35.3543 42.8665C35.2845 42.7964 35.1956 42.7486 35.0986 42.7291C35.0017 42.7096 34.9012 42.7193 34.8098 42.7569C34.7184 42.7945 34.6401 42.8583 34.585 42.9404C34.5298 43.0225 34.5003 43.119 34.5 43.2179V58.8007C34.5 67.675 35.4257 70.8922 37.1657 74.1379C38.8675 77.3458 41.4946 79.9679 44.7057 81.6636C47.9571 83.4007 51.18 84.3236 60.0714 84.3236H63.3857C64.0498 84.3242 64.6869 84.0611 65.1571 83.5922L71.0514 77.7065C71.1211 77.6367 71.1685 77.5479 71.1875 77.4512C71.2066 77.3546 71.1965 77.2544 71.1586 77.1635C71.1206 77.0725 71.0565 76.9949 70.9743 76.9405C70.8922 76.8861 70.7957 76.8573 70.6971 76.8579H61.16C54.4914 76.8579 52.0743 76.1636 49.6343 74.8636C47.2249 73.5918 45.2538 71.6246 43.9771 69.2179C42.6743 66.7836 41.98 64.3722 41.98 57.715V50.5093C41.98 50.1829 41.9157 49.8597 41.7907 49.5582C41.6656 49.2567 41.4824 48.9828 41.2514 48.7522ZM76.04 5.53217L70.1429 11.4179C69.9101 11.6502 69.6339 11.8344 69.3299 11.9599C69.026 12.0854 68.7003 12.1497 68.3714 12.1493H61.1629C54.4943 12.1493 52.0771 12.8436 49.6371 14.1436C47.2278 15.4154 45.2567 17.3825 43.98 19.7893C42.6771 22.2207 41.9829 24.635 41.9829 31.2922V40.8122C41.9826 40.911 41.953 41.0076 41.8979 41.0896C41.8427 41.1717 41.7645 41.2356 41.6731 41.2732C41.5817 41.3108 41.4811 41.3205 41.3842 41.3009C41.2873 41.2814 41.1983 41.2336 41.1286 41.1636L35.2314 35.275C35.0001 35.0445 34.8164 34.7707 34.6909 34.4692C34.5654 34.1677 34.5005 33.8445 34.5 33.5179V30.2065C34.5 21.3322 35.4257 18.1122 37.1657 14.8693C38.8676 11.6615 41.4947 9.03942 44.7057 7.34359C47.9571 5.60645 51.18 4.68359 60.0714 4.68359H75.6857C75.7837 4.68441 75.8792 4.71397 75.9605 4.76861C76.0418 4.82325 76.1052 4.90056 76.143 4.99094C76.1807 5.08132 76.191 5.18079 76.1727 5.27701C76.1544 5.37323 76.1083 5.46195 76.04 5.53217ZM92.94 26.0693L100.98 33.7407C101.051 33.8084 101.14 33.8538 101.236 33.8714C101.332 33.889 101.432 33.8779 101.522 33.8396C101.612 33.8012 101.688 33.7373 101.742 33.6558C101.797 33.5742 101.825 33.4786 101.826 33.3807V27.0807C101.823 24.4382 100.77 21.905 98.8998 20.0383C97.0293 18.1716 94.494 17.1242 91.8514 17.1265H72.9371C72.2755 17.1266 71.6407 17.3886 71.1714 17.855L65.2686 23.7407C65.1979 23.8103 65.1497 23.8994 65.13 23.9965C65.1104 24.0937 65.1202 24.1945 65.1583 24.286C65.1964 24.3776 65.261 24.4556 65.3438 24.5102C65.4265 24.5647 65.5237 24.5933 65.6229 24.5922H89.3571C89.98 24.5922 90.5743 24.7065 91.12 24.9122C91.7857 25.1522 92.4057 25.5407 92.94 26.0693ZM85.1771 71.0464L92.8629 63.0179C93.3971 62.4864 93.7829 61.8664 94.0257 61.2036C94.2314 60.6579 94.3457 60.0636 94.3457 59.4436V35.755C94.346 35.6562 94.3756 35.5596 94.4307 35.4775C94.4858 35.3955 94.5641 35.3316 94.6555 35.294C94.7469 35.2564 94.8474 35.2467 94.9444 35.2662C95.0413 35.2857 95.1302 35.3335 95.2 35.4036L101.097 41.295C101.563 41.761 101.825 42.393 101.826 43.0522V61.9322C101.823 64.5747 100.772 67.1082 98.9018 68.9755C97.0319 70.8427 94.4969 71.8908 91.8543 71.8893H85.54C85.4425 71.8891 85.3471 71.8604 85.2657 71.8067C85.1843 71.7529 85.1204 71.6766 85.0818 71.587C85.0433 71.4974 85.0317 71.3985 85.0487 71.3025C85.0656 71.2064 85.1103 71.1174 85.1771 71.0464ZM55.8543 62.935L47.8143 55.2664C47.7438 55.199 47.655 55.1536 47.559 55.1359C47.463 55.1182 47.364 55.1291 47.274 55.167C47.1841 55.205 47.1073 55.2685 47.053 55.3496C46.9987 55.4307 46.9694 55.526 46.9686 55.6236V61.9264C46.9716 64.569 48.0241 67.1022 49.8945 68.9689C51.765 70.8356 54.3003 71.883 56.9429 71.8807H75.8571C76.5193 71.8801 77.1542 71.6171 77.6229 71.1493L83.5257 65.2636C83.5954 65.1939 83.6427 65.1051 83.6618 65.0084C83.6809 64.9117 83.6708 64.8116 83.6329 64.7206C83.5949 64.6297 83.5308 64.5521 83.4486 64.4977C83.3664 64.4433 83.27 64.4145 83.1714 64.415H59.4371C58.8143 64.415 58.22 64.3007 57.6714 64.095C56.9882 63.8459 56.3679 63.4499 55.8543 62.935ZM63.6171 17.9665L55.9314 25.995C55.4165 26.5075 55.0205 27.1269 54.7714 27.8093C54.5629 28.3579 54.4486 28.9522 54.4486 29.5693V53.2607C54.4491 53.36 54.42 53.4571 54.3648 53.5396C54.3097 53.6222 54.2311 53.6863 54.1393 53.7238C54.0474 53.7613 53.9464 53.7704 53.8492 53.75C53.7521 53.7296 53.6633 53.6806 53.5943 53.6093L47.7 47.7236C47.2338 47.2576 46.9717 46.6256 46.9714 45.9664V27.0807C46.9745 24.4382 48.0269 21.905 49.8974 20.0383C51.7678 18.1716 54.3031 17.1242 56.9457 17.1265H63.26C63.3567 17.1277 63.451 17.157 63.5314 17.2108C63.6118 17.2646 63.6749 17.3405 63.713 17.4294C63.7511 17.5184 63.7626 17.6164 63.7461 17.7117C63.7296 17.8071 63.6858 17.8955 63.62 17.9665H63.6171Z" fill="white"/>
</g>
<defs>
<clipPath id="clip0_32256_75040">
<rect width="80" height="80" fill="white" transform="translate(34.5 4.5)"/>
</clipPath>
</defs>
</svg>
