<svg width="150" height="90" viewBox="0 0 150 90" fill="none" xmlns="http://www.w3.org/2000/svg">
<g clip-path="url(#clip0_32256_75035)">
<path d="M107.188 5H42.8125C38.4978 5 35 8.49778 35 12.8125V77.1875C35 81.5022 38.4978 85 42.8125 85H107.188C111.502 85 115 81.5022 115 77.1875V12.8125C115 8.49778 111.502 5 107.188 5Z" fill="#3178C6"/>
<path d="M107.188 5H42.8125C38.4978 5 35 8.49778 35 12.8125V77.1875C35 81.5022 38.4978 85 42.8125 85H107.188C111.502 85 115 81.5022 115 77.1875V12.8125C115 8.49778 111.502 5 107.188 5Z" fill="white"/>
<path d="M60.5942 26.9355C60.5942 33.6351 64.7354 37.6549 73.0178 39.7705L81.7915 41.8157C89.6527 43.6492 94.4256 48.1626 94.4256 55.4969C94.4958 58.6704 93.4429 61.7733 91.5478 64.3121C91.5478 56.9779 87.7576 53.0286 78.7031 50.6309L70.0698 48.6563C63.121 47.1048 57.7866 43.3671 57.7866 35.3982C57.7866 32.3657 58.7693 29.3333 60.5942 26.9355Z" fill="#02021E"/>
<path d="M86.1384 53.6619C89.8585 56.0596 91.543 59.4447 91.543 64.3107C88.3845 68.3304 82.9799 70.5166 76.5927 70.5166C65.8536 70.5166 58.203 65.1569 56.5886 55.9186H66.9065C68.2401 60.1499 71.7496 62.1245 76.5225 62.1245C82.2078 62.195 86.0682 59.0921 86.1384 53.6619ZM60.5894 26.8636C63.6076 22.9143 68.8016 20.5166 75.1187 20.5166C86.1384 20.5166 92.4555 26.3699 94.0699 34.5505H84.1029C82.9799 31.3064 80.2425 28.7677 75.2591 28.7677C69.8545 28.8382 66.2046 31.9411 65.994 36.8777C62.3772 34.8736 60.4491 30.9538 60.5894 26.8636Z" fill="#02021E"/>
</g>
<defs>
<clipPath id="clip0_32256_75035">
<rect width="80" height="80" fill="white" transform="translate(35 5)"/>
</clipPath>
</defs>
</svg>
