<svg width="150" height="90" viewBox="0 0 150 90" fill="none" xmlns="http://www.w3.org/2000/svg">
<g clip-path="url(#clip0_32256_76460)">
<path d="M143.351 29.4123C138.557 23.8656 132.062 21.959 123.711 23.6923C123.711 23.6923 113.814 26.2923 104.845 26.4656C101.134 26.4656 97.8866 25.2523 95.2577 24.559C96.6495 27.159 98.9691 28.8923 101.443 29.9323C103.763 30.799 107.01 32.359 105.619 34.959C104.072 37.7323 101.443 35.3056 100.825 34.7856C98.5052 32.879 97.4227 31.319 93.0928 28.5456C88.4536 25.4256 81.8041 25.4256 75.3093 26.119C75.3093 26.119 80.7217 27.3323 83.0412 30.1056C83.0412 30.1056 72.6804 27.679 65.8763 31.319C75.7732 31.6656 86.5979 33.399 88.4536 34.439C90.3093 35.479 89.3814 35.999 87.6804 36.519C83.3505 37.559 75.1546 37.9056 70.2062 36.3456C63.0928 34.0923 56.9072 27.3323 46.5464 29.0656C55.6701 31.1456 60.6186 40.8523 70.5155 43.1056C80.4124 45.359 87.2165 41.0256 89.5361 40.3323C91.701 39.8123 93.7113 40.5056 94.3299 42.239C94.9485 43.9723 92.9381 46.0523 90.1546 46.7456C88.1443 47.0923 87.5258 47.0923 83.8144 47.6123C76.2371 48.479 70.6701 47.439 65.8763 46.0523C56.5979 43.279 50.1031 36.519 47.0103 34.6123C43.9175 32.7056 40.0516 32.0123 37.4227 31.6656C37.4227 31.6656 42.3711 34.6123 44.3814 38.2523C39.8969 36.3456 33.2474 35.1323 24.433 37.039C19.7938 37.9056 10.9794 40.3323 0 45.1856C5.41237 46.919 12.3711 45.5323 15.4639 45.359C31.8557 43.9723 37.268 47.7856 42.3711 49.8656C58.299 56.4523 63.866 50.7323 64.9485 52.639C65.7217 54.0256 60.6186 56.279 59.2268 56.6256C52.1134 58.0123 48.5567 56.6256 41.9072 54.8923C45.1546 58.5323 51.4949 61.1323 58.6083 60.959C65.8763 60.6123 73.6083 59.399 79.6392 56.4523C86.7526 53.159 89.8454 51.9456 93.0928 50.9056C94.4845 50.559 99.433 48.999 100.515 50.559C101.134 51.4256 100.206 52.119 98.6598 52.8123C97.4227 53.3323 95.8763 54.0256 94.3299 54.5456C90.7732 56.1056 84.2784 58.7056 82.1134 60.7856C82.1134 60.7856 91.3918 59.2256 100.515 59.2256C109.485 59.2256 115.825 61.3056 122.629 64.2523C129.897 67.3723 136.392 66.3323 141.959 61.1323C146.907 56.6256 149.227 51.079 149.072 44.839C149.072 38.7723 147.062 33.7456 143.351 29.4123ZM130.515 61.999C122.01 61.999 115.052 54.199 115.052 44.6656C115.052 35.1323 122.01 27.3323 130.515 27.3323C139.021 27.3323 145.979 35.1323 145.979 44.6656C145.979 54.199 139.021 61.999 130.515 61.999Z" fill="white"/>
<path d="M130.515 30.9727C123.866 30.9727 118.299 37.0393 118.299 44.666C118.299 52.2927 123.711 58.3593 130.515 58.3593C137.32 58.3593 142.732 52.2927 142.732 44.666C142.732 37.0393 137.32 30.9727 130.515 30.9727ZM136.237 53.6793C137.629 51.7727 138.402 49.346 138.402 46.5727C138.402 41.026 134.845 36.346 130.206 35.306C130.67 34.6127 131.134 34.0927 131.598 33.3993C136.392 34.266 140.103 38.946 140.103 44.666C140.103 48.306 138.557 51.5993 136.237 53.6793Z" fill="white"/>
</g>
<defs>
<clipPath id="clip0_32256_76460">
<rect width="150" height="43.3333" fill="white" transform="translate(0 23)"/>
</clipPath>
</defs>
</svg>
