<svg width="150" height="90" viewBox="0 0 150 90" fill="none" xmlns="http://www.w3.org/2000/svg">
<g clip-path="url(#clip0_32256_75036)">
<path d="M102.278 18.099C102.22 17.6768 101.852 17.4425 101.545 17.417C101.242 17.3915 95.2897 17.3011 95.2897 17.3011C95.2897 17.3011 90.3118 12.4672 89.8201 11.9754C89.3285 11.4837 88.3681 11.6322 87.9946 11.7435C87.99 11.7458 87.0599 12.0334 85.4942 12.5182C85.2321 11.6693 84.847 10.6255 84.2972 9.57705C82.5252 6.19518 79.9296 4.40682 76.7935 4.4022C76.7889 4.4022 76.7865 4.4022 76.7819 4.4022C76.5638 4.4022 76.3481 4.42307 76.1302 4.44162C76.0374 4.33028 75.9446 4.22127 75.8472 4.11456C74.4809 2.65327 72.7297 1.94117 70.6305 2.0038C66.5806 2.11978 62.5469 5.0447 59.2763 10.2404C56.9753 13.896 55.224 18.4887 54.7277 22.0445C50.077 23.4849 46.8249 24.4916 46.753 24.5148C44.4056 25.2524 44.3314 25.3243 44.0252 27.5372C43.7979 29.2095 37.6558 76.7043 37.6558 76.7043L89.1289 85.6066L111.438 80.0605C111.438 80.0605 102.336 18.5212 102.278 18.099ZM82.9172 13.3161C81.7319 13.6826 80.3841 14.1001 78.9228 14.5525C78.8927 12.502 78.6491 9.64897 77.6935 7.1833C80.7669 7.76551 82.2792 11.2425 82.9172 13.3161ZM76.2298 15.3875C73.5322 16.2225 70.5887 17.134 67.636 18.048C68.4663 14.8679 70.0414 11.7017 71.9759 9.62577C72.6949 8.85337 73.7015 7.99282 74.8938 7.50107C76.0141 9.83916 76.2577 13.1491 76.2298 15.3875ZM70.7116 4.69908C71.6626 4.67821 72.4629 4.88698 73.1472 5.33696C72.0524 5.90525 70.9946 6.72172 70.0019 7.78638C67.4295 10.5466 65.4579 14.8308 64.6715 18.9642C62.2197 19.7226 59.8213 20.4673 57.6131 21.1492C59.0073 14.6429 64.4604 4.88001 70.7116 4.69908Z" fill="white"/>
<path d="M101.55 17.4195C101.247 17.394 95.2945 17.3036 95.2945 17.3036C95.2945 17.3036 90.3168 12.4697 89.8251 11.9779C89.6418 11.7947 89.3937 11.6996 89.1338 11.6602L89.1362 85.6044L111.443 80.0608C111.443 80.0608 102.341 18.5237 102.283 18.1015C102.225 17.6793 101.854 17.445 101.55 17.4195Z" fill="white"/>
<path d="M76.7676 28.8957L74.1767 38.5889C74.1767 38.5889 71.2866 37.2737 67.8606 37.4894C62.8364 37.8073 62.783 40.9757 62.8341 41.7713C63.1078 46.1065 74.513 47.0529 75.1533 57.2078C75.6566 65.1962 70.9153 70.661 64.0843 71.0924C55.8847 71.6097 51.3708 66.7735 51.3708 66.7735L53.1082 59.3835C53.1082 59.3835 57.6521 62.8118 61.2892 62.5821C63.6645 62.4314 64.5134 60.4992 64.4275 59.1329C64.0704 53.4779 54.7829 53.8119 54.1961 44.5199C53.702 36.7009 58.8376 28.7774 70.1684 28.0629C74.5339 27.7823 76.7676 28.8957 76.7676 28.8957Z" fill="#02021E"/>
</g>
<defs>
<clipPath id="clip0_32256_75036">
<rect width="73.8532" height="85" fill="white" transform="translate(37.6558 2)"/>
</clipPath>
</defs>
</svg>
