<svg width="150" height="90" viewBox="0 0 150 90" fill="none" xmlns="http://www.w3.org/2000/svg">
<path fill-rule="evenodd" clip-rule="evenodd" d="M70.1038 29.369C70.1038 26.1758 72.7238 24.9477 77.0633 24.9477C83.2859 24.9477 91.1461 26.8309 97.3687 30.1878V10.9469C90.5729 8.24505 83.8591 7.18066 77.0633 7.18066C60.4424 7.18066 49.389 15.8595 49.389 30.3515C49.389 52.9492 80.5021 49.3467 80.5021 59.0899C80.5021 62.8562 77.2271 64.0843 72.642 64.0843C65.8462 64.0843 57.1673 61.3006 50.2897 57.5343V77.0207C57.9042 80.2957 65.6006 81.6876 72.642 81.6876C89.6723 81.6876 101.381 73.2544 101.381 58.5987C101.299 34.1997 70.1038 38.5391 70.1038 29.369Z" fill="white"/>
</svg>
