<svg width="270" height="270" viewBox="0 0 270 270" fill="none" xmlns="http://www.w3.org/2000/svg">
<g clip-path="url(#clip0_33115_103755)">
<path d="M57.8184 206.224V63.776M63.5437 211.205H206.457M63.5437 57.957H206.457M212.324 63.776V206.224" stroke="#02021E" stroke-width="2.5" stroke-miterlimit="3.004" stroke-linecap="round" stroke-linejoin="round"/>
<path d="M60.8432 63.6368H54.6983C53.2552 63.6368 52.0449 62.473 52.0449 60.9833V54.8385C52.0449 53.3954 53.2087 52.1851 54.6983 52.1851H60.8432C62.2863 52.1851 63.4966 53.3489 63.4966 54.8385V60.9833C63.4966 62.473 62.3328 63.6368 60.8432 63.6368Z" stroke="#02021E" stroke-width="2.5" stroke-miterlimit="3.004" stroke-linecap="round" stroke-linejoin="round"/>
<path d="M60.8432 217.814H54.6983C53.2552 217.814 52.0449 216.65 52.0449 215.161V209.016C52.0449 207.573 53.2087 206.362 54.6983 206.362H60.8432C62.2863 206.362 63.4966 207.526 63.4966 209.016V215.161C63.4966 216.65 62.3328 217.814 60.8432 217.814Z" stroke="#02021E" stroke-width="2.5" stroke-miterlimit="3.004" stroke-linecap="round" stroke-linejoin="round"/>
<path d="M215.349 217.814H209.204C207.761 217.814 206.551 216.65 206.551 215.161V209.016C206.551 207.573 207.715 206.362 209.204 206.362H215.349C216.792 206.362 218.003 207.526 218.003 209.016V215.161C218.003 216.65 216.792 217.814 215.349 217.814Z" stroke="#02021E" stroke-width="2.5" stroke-miterlimit="3.004" stroke-linecap="round" stroke-linejoin="round"/>
<path d="M215.349 63.6368H209.204C207.761 63.6368 206.551 62.473 206.551 60.9833V54.8385C206.551 53.3954 207.715 52.1851 209.204 52.1851H215.349C216.792 52.1851 218.003 53.3489 218.003 54.8385V60.9833C218.003 62.473 216.792 63.6368 215.349 63.6368Z" stroke="#02021E" stroke-width="2.5" stroke-miterlimit="3.004" stroke-linecap="round" stroke-linejoin="round"/>
<path d="M148.5 187.259V130.658C148.5 128.226 151.404 127.158 153.063 128.819L191.941 167.74C193.719 169.52 192.238 172.486 189.808 172.249C182.696 171.596 175.466 170.884 168.354 170.232C167.406 170.172 166.517 170.528 165.924 171.359C161.775 177.233 157.508 183.047 153.36 188.921C151.76 190.879 148.5 189.811 148.5 187.259Z" stroke="#02021E" stroke-width="2.5" stroke-miterlimit="3.004" stroke-linecap="round" stroke-linejoin="round"/>
</g>
<defs>
<clipPath id="clip0_33115_103755">
<rect width="270" height="270" fill="white"/>
</clipPath>
</defs>
</svg>
