<svg width="150" height="90" viewBox="0 0 150 90" fill="none" xmlns="http://www.w3.org/2000/svg">
<path d="M69.3731 7.25L53.8731 32.5833C52.1647 35.3333 54.1647 38.9167 57.4147 38.9167H88.3731C91.6231 38.9167 93.6231 35.3333 91.9147 32.5833L76.4564 7.25C74.8314 4.58333 70.9981 4.58333 69.3731 7.25Z" fill="white"/>
<path d="M95.8333 47.249C89.1346 47.249 82.9447 50.8228 79.5953 56.624C76.246 62.4253 76.246 69.5728 79.5953 75.374C82.9447 81.1753 89.1346 84.749 95.8333 84.749C102.532 84.749 108.722 81.1753 112.071 75.374C115.421 69.5728 115.421 62.4253 112.071 56.624C108.722 50.8228 102.532 47.249 95.8333 47.249V47.249Z" fill="white"/>
<path d="M39.5834 82.6663H64.5834C66.875 82.6663 68.75 80.7913 68.75 78.4997V53.4997C68.75 51.208 66.875 49.333 64.5834 49.333H39.5834C37.2917 49.333 35.4167 51.208 35.4167 53.4997V78.4997C35.4167 80.7913 37.2917 82.6663 39.5834 82.6663Z" fill="white"/>
</svg>
