<svg width="270" height="270" viewBox="0 0 270 270" fill="none" xmlns="http://www.w3.org/2000/svg">
<path d="M137.745 224.287C186.619 224.287 226.24 184.667 226.24 135.792C226.24 86.9179 186.619 47.2974 137.745 47.2974C88.8705 47.2974 49.25 86.9179 49.25 135.792C49.25 184.667 88.8705 224.287 137.745 224.287Z" stroke="#02021E" stroke-width="2.5" stroke-miterlimit="3.004" stroke-linecap="round" stroke-linejoin="round"/>
<path d="M137.746 224.288V47.3447" stroke="#02021E" stroke-width="2.5" stroke-miterlimit="3.004" stroke-linecap="round" stroke-linejoin="round"/>
<path d="M137.746 224.287C162.324 224.287 182.249 184.667 182.249 135.792C182.249 86.9179 162.324 47.2974 137.746 47.2974C113.167 47.2974 93.2422 86.9179 93.2422 135.792C93.2422 184.667 113.167 224.287 137.746 224.287Z" stroke="#02021E" stroke-width="2.5" stroke-miterlimit="3.004" stroke-linecap="round" stroke-linejoin="round"/>
<path d="M49.25 135.793H226.24" stroke="#02021E" stroke-width="2.5" stroke-miterlimit="3.004" stroke-linecap="round" stroke-linejoin="round"/>
</svg>
